<svg id="图层_1" data-name="图层 1" xmlns="http://www.w3.org/2000/svg" viewBox="0 0 512 512"><line x1="80.5" y1="384" x2="399.5" y2="384" style="fill:none;stroke:#7f7f7f;stroke-linecap:round;stroke-miterlimit:10;stroke-width:8px"/><line x1="80" y1="384" x2="80" y2="240" style="fill:none;stroke:#7f7f7f;stroke-linecap:round;stroke-miterlimit:10;stroke-width:8px"/><line x1="400" y1="384" x2="400" y2="240" style="fill:none;stroke:#7f7f7f;stroke-linecap:round;stroke-miterlimit:10;stroke-width:8px"/><path d="M176,240c20.431,54.211,105.3,53.292,127.5.5" style="fill:none;stroke:#7f7f7f;stroke-linecap:round;stroke-miterlimit:10;stroke-width:8px"/><line x1="80" y1="240" x2="176" y2="240" style="fill:none;stroke:#7f7f7f;stroke-linecap:round;stroke-miterlimit:10;stroke-width:8px"/><line x1="304" y1="240" x2="400" y2="240" style="fill:none;stroke:#7f7f7f;stroke-linecap:round;stroke-miterlimit:10;stroke-width:8px"/><line x1="144" y1="160" x2="80" y2="240" style="fill:none;stroke:#7f7f7f;stroke-linecap:round;stroke-miterlimit:10;stroke-width:8px"/><line x1="400" y1="240" x2="336" y2="160" style="fill:none;stroke:#7f7f7f;stroke-linecap:round;stroke-miterlimit:10;stroke-width:8px"/><line x1="261.514" y1="160.001" x2="336.001" y2="160.001" style="fill:none;stroke:#7f7f7f;stroke-linecap:round;stroke-miterlimit:10;stroke-width:8px"/><line x1="144" y1="160.001" x2="216.773" y2="160.001" style="fill:none;stroke:#7f7f7f;stroke-linecap:round;stroke-miterlimit:10;stroke-width:8px"/><path d="M298,81s-17.434,7.385-30.941,26.64C264,112,252,128,252,192h36l-48,60-53-60h37c0-80,26.307-94.422,38-101C278,82,298,81,298,81Zm-41.794,2.331C225.489,101.066,216.1,141.4,216,184H181c-5,0-6,6-4.127,8.4L235,260a6.681,6.681,0,0,0,10,0l53.434-68.659C301,188,301,184,296,184H261c.408-47.043,3-92,69.581-103.247l-3.135-5.43C296.052,70.243,272.941,73.67,256.206,83.331Z" style="fill:#00bf00"/><text transform="translate(160 443.504)" style="font-size:32px;fill:#7f7f7f;font-family:PingFang-SC-Medium, PingFang SC;font-weight:500">快放进来吧！</text><text transform="translate(330.736 72.983)" style="font-size:44px;fill:#7f7f7f;font-family:MicrosoftYaHei, Microsoft YaHei">╰(*°▽°*)╯</text></svg>