<?xml version="1.0" encoding="utf-8"?>
<!-- Generator: Adobe Illustrator 26.0.2, SVG Export Plug-In . SVG Version: 6.00 Build 0)  -->
<svg version="1.1" id="图层_1" xmlns="http://www.w3.org/2000/svg" xmlns:xlink="http://www.w3.org/1999/xlink" x="0px" y="0px"
	 viewBox="0 0 720 720" style="enable-background:new 0 0 720 720;" xml:space="preserve">
<style type="text/css">
	.st0{fill:#FE3D47;}
	.st1{fill:#090B08;}
	.st2{fill:#EAAAA4;}
	.st3{fill:#FEFEFE;}
	.st4{fill:#FFFFFF;}
</style>
<path class="st0" d="M572.4,720c-10.5,0-21,0-31.5,0c0-6.1-0.1-12.2,0.2-18.3c1.3-24.5,3.2-49,3.9-73.6c0.8-28.2,0.6-56.4,0.8-84.6
	c0-2.3-0.4-4.7-0.9-7c-0.2-0.9-1.3-2.1-2-2.2c-0.8,0-2,1.1-2.3,1.9c-0.6,1.5-0.7,3.1-0.9,4.7c-0.6,4.7-0.5,9.6-1.9,14.1
	c-3.8,12.3-3.7,24.9-4.1,37.4c-0.4,12-0.5,24-1.1,35.9c-1.3,25.5-2.9,51-4.2,76.6c-0.2,3.7-1.3,4.9-5,4.9
	c-6.2,0.1-12.4,0.8-18.6,1.3c-3.9,0.3-45.4-1.2-62.2-2.2c-12.3-0.7-24.7-1.2-37-1.7c-5.5-0.2-10.9-0.2-16.4-0.4
	c-3-0.1-3.6-1.7-3.1-4.5c1.5-9.9,3.8-19.9,4-29.9c0.6-27.8,0.4-55.7,0.5-83.5c0-6.7-0.1-13.5-0.2-20.2c-0.3-13.8-0.8-27.7-1-41.5
	c-0.1-7.2,0-14.5,0-21.7c0-7.6-0.8-15.2,0-22.7c1-9.2,1.5-9,10.9-9.1c11.1-0.2,22.2,0.1,33.2-1.4c22.5-3.1,43.8-10.5,65-18.3
	c5-1.9,10.1-3.6,15.1-5.4c5.6-2,11.1-4.4,16.8-5.9c9.1-2.4,16.1,3.2,18.4,11.9c0.9,3.4,2,6.7,3.1,10c4.1,13.2,9.3,26.2,12.1,39.6
	c3.3,15.6,4.8,31.5,6.4,47.4c1.8,18.5,3.3,37,4,55.6c0.6,17.2-0.1,34.4-0.3,51.7c-0.2,19-0.5,37.9-0.8,56.9
	C573,717.1,572.6,718.6,572.4,720z"/>
<path class="st1" d="M383.6,720c-4,0-8,0-12,0c0-1.3,0-2.6,0-3.9c0.5-4.7,1-9.4,1.6-14c0.1-0.4,2-10.9,2.9-15.7
	c0.1-1.2,0.2-2.4,0.3-3.5c0.1-1.6,0.2-3.1,0.4-4.7c0.1-1.4,0.3-2.9,0.4-4.3c0.1-1.1,0.2-6.5,0.2-6.9c-0.1-2.5,0-10.6,0.2-12.1
	c0.1-1,0.3-2.1,0.4-3.1c0.2-1.5,0.4-2.9,0.5-4.4c0.1-2.2-1-2.8-3-2.4c-8.3,1.4-16.6,2.7-24.8,4.2c-2.4,0.4-4.7,1.9-7.1,2.1
	c-11.7,1.4-23.5,2.8-35.3,3.6c-7,0.4-13.6,1.4-19.4,5.6c-5.6,0.4-9.4,4.1-13.2,7.5c-4.4,3.9-8.3,8.3-12.2,12.6
	c-2.2,2.4-4.8,3.7-8,3.3c-10.3-1.4-20.7-2.9-31-4.3c-6.8-0.9-13.6-1.6-20.4-2.5c-12-1.7-23.9-3.7-35.9-5.2
	c-11.2-1.5-22.5-2.5-33.8-3.8c-5.4-0.6-10.8-1.6-16.3-2.1c-8.1-0.7-11.4-3.2-12.4-11.5c-1.1-10.2-2.1-20.4-2.2-30.6
	c-0.1-20.6,0.3-41.2,0.7-61.8c0.1-4.2,0.5-8.5,1.5-12.6c0.7-3.2,1.9-6.7,4.1-9c6.8-7.3,14.2-14,21.3-21c2.1-2,4.3-2.3,6.8-0.8
	c20.8,12.6,43.4,21.2,65.7,30.3c15.4,6.3,30.4,13.9,45.5,21c0.7,0.3,1.4,0.6,1.9,1.1c3.9,3.7,8.4,4.5,13.5,3.5
	c7.2-1.4,12.6,1.8,16.4,7.5c6.1,9.1,11.5,18.7,13.9,29.6c0.7,3.4,2,4.5,5.9,3.9c14.3-2.4,28.6-4.1,42.3-9.1
	c10.8-4,20.9-9.2,27.8-18.8c2.1-2.9,3.8-6.6,4.3-10.1c1.7-12,3.2-24.1,2.6-36.4c-1.1-20.6-1-41.2-1.5-61.8c0-1.2-0.2-2.5-0.3-3.7
	c0.5-2.7-0.3-5-3-5.5c-5.1-1-10.4-1.5-15.6-2.3c-0.8-0.1-1.6-0.3-2.4-0.4c-0.4-0.1-2.1-0.6-2.6-0.7c-1.3-0.4-4.8-1.4-5.2-1.5
	c-7.8-3.5-26.1-13-27.3-13.8c-8.7-6.4-17.8-12.4-26-19.4c-7.4-6.2-21.1-20.2-21.1-20.2c-2.2-3-6.7-9-6.7-9c-1.1-1.8-4.9-7.6-5.5-8.4
	c-0.4-0.7-3.2-5.1-3.6-5.8c-1.1-2.1-2.2-4.1-3.3-6.2c-0.3-0.4-1.3-2.4-1.5-3c-0.5-0.9-2.7-5.8-3-6.5c-0.3-0.6-1.7-4.6-2.2-6
	c-0.5-1.3-0.9-2.7-1.4-4c-0.7-2.2-1.5-4.3-2.2-6.5c-0.7-1.9-2.4-7.4-2.5-8.2c-0.3-1.2-1.7-6.2-2-7.5c-0.4-1.4-1.4-5.4-1.6-6
	c-0.9-9.4-1.9-18.7-2.5-28.1c-0.5-6.5-0.5-13.1-0.7-19.7c2.1-14.4,3.7-28.9,6.4-43.2c3.4-17.4,11.4-33,20.8-48
	c4.4-7.1,8.2-14.6,14.8-20c4.8-3.9,10-7.5,14.5-11.8c10.7-10.3,23.4-17.2,37.2-22.2c10.9-3.9,21.9-7.3,32.9-10.9
	c1.2-0.4,2.3-0.9,3.5-1.3c2.6-0.6,5.2-1.4,7.8-1.9c4.6-0.9,9.2-1.6,13.8-2.3c0.6,0,1.2-0.1,1.8-0.1c1.3,0.1,2.7,0.3,4,0.3
	c12.8,0,25.6-0.1,38.4-0.1c5.2,0,10.4,0.3,15.6,0.4c0.8,0,1.7,0.1,2.5,0.1c7,1.5,14,3.2,21.1,4.5c13.3,2.4,26,6.6,38,13.1
	c14.6,7.9,27.3,18.4,39.3,29.7c8.5,8,15.8,17.2,23.5,26.1c8.7,10,13.8,22.1,17.9,34.6c2.5,7.7,4.1,15.8,6,23.7
	c2.3,25.1,1.3,38.3-0.8,59.4c-0.9,7-3.3,13.8-4.6,20.7c-3,15.8-8.5,30.6-15.3,45.1c-2.7,5.8-6.3,11.2-9.4,16.8
	c-6.2,8.7-12.4,17.4-18.7,26.2c-1.6,2.2-1.5,4.3,0.6,6c9.4,7.7,13.8,18.5,18.2,29.2c8,19.4,11.8,39.9,15.6,60.3
	c1.9,10.3,2.1,20.8,3.4,31.2c5,39.1,3.8,78.4,3,117.7c-0.3,15.2-0.3,30.4-0.4,45.7c0,1.4,0.2,2.7,0.3,4.1c-4.5,0-9,0-13.5,0
	c0.2-1.4,0.6-2.9,0.6-4.3c0.3-19,0.5-37.9,0.8-56.9c0.2-17.2,0.9-34.5,0.3-51.7c-0.6-18.5-2.2-37.1-4-55.6
	c-1.5-15.9-3.1-31.8-6.4-47.4c-2.8-13.5-8-26.4-12.1-39.6c-1-3.3-2.2-6.6-3.1-10c-2.3-8.7-9.3-14.3-18.4-11.9
	c-5.7,1.5-11.2,3.9-16.8,5.9c-5,1.8-10.1,3.5-15.1,5.4c-21.2,7.8-42.6,15.3-65,18.3c-10.9,1.5-22.1,1.2-33.2,1.4
	c-9.4,0.1-10-0.2-10.9,9.1c-0.8,7.5,0,15.1,0,22.7c0,7.2-0.1,14.5,0,21.7c0.3,13.8,0.7,27.7,1,41.5c0.2,6.7,0.3,13.5,0.2,20.2
	c-0.1,27.8,0.1,55.7-0.5,83.5c-0.2,10-2.5,20-4,29.9c-0.4,2.8,0.1,4.5,3.1,4.5c5.5,0.2,10.9,0.2,16.4,0.4c12.3,0.5,24.7,0.9,37,1.7
	c16.8,1,58.3,2.5,62.2,2.2c6.2-0.5,12.4-1.2,18.6-1.3c3.7,0,4.8-1.2,5-4.9c1.3-25.5,2.9-51,4.2-76.6c0.6-12,0.7-24,1.1-35.9
	c0.4-12.6,0.3-25.2,4.1-37.4c1.4-4.5,1.3-9.4,1.9-14.1c0.2-1.6,0.3-3.3,0.9-4.7c0.3-0.9,1.5-1.9,2.3-1.9c0.7,0,1.8,1.3,2,2.2
	c0.5,2.3,1,4.7,0.9,7c-0.2,28.2,0,56.4-0.8,84.6c-0.7,24.5-2.7,49-3.9,73.6c-0.3,6.1-0.1,12.2-0.2,18.3c-47.2,0-94.4,0-141.6,0
	 M272.2,634.9c-0.5,2.7,0.3,5.7,0.6,8.6c0.3,1,0.7,2.1,1,3.1c0.3,0.6,0.6,1.2,0.8,1.8c0.4,0.9,0.9,1.8,1.3,2.7
	c1.7,0.9,3.5,1.7,5.2,2.6c0.6-1.5,1.6-2.9,1.9-4.4c0.9-5.8,1.6-11.7,2.4-17.6c0.4-3.2,1.1-6.4,1-9.6c-0.2-6.3-3.6-11.5-6.6-16.7
	c-0.3,0.1-0.7,0.1-1,0.2c0,2.6,0,5.3,0,7.9c-0.7,3.8-1.5,7.6-2.2,11.4 M261.1,623.8c0.3-0.7,0.7-1.4,1-2.1c0.7-7,1.5-14,2.2-21
	c0.5-5.5,0.3-5.7-5-6.7c-3.3-0.6-5.5-2.4-7.6-4.9c-2.3-2.7-4.8-5.7-7.8-7.1c-17.4-8.4-35-16.4-52.5-24.5c-2.9-1.3-3.9,0.1-4,2.8
	c-0.1,4.5-0.3,9-0.4,13.4c-0.2,5.1,0.6,9.7,5.8,12.4c1,0.5,1.7,1.8,2.5,2.7c2.1,2,4.1,4.3,6.5,5.9c4.7,3.2,6.8,7.9,8,13
	c0.3,1.3-0.8,4.1-1.8,4.4c-6.7,2-9.3,1.4-11.5-4.3c-0.6-1.6-1.5-3.2-2-4.8c-1.2-4.2-4.3-6.3-8.2-7.4c-2.9-0.8-4.9-0.1-5.4,3.2
	c-0.2,1.7-0.8,3.4-1.3,5.1c-0.7,2.7-2.5,3.2-4.9,2.5c-2.8-0.8-6-5.4-5.3-9c1.4-6.8,3.5-13.5,5.3-20.2c0.1-0.4,0.5-0.9,0.9-1.2
	c3.5-2.1,2.8-5.1,1.9-8.3c-1.2-4.2-2.4-8.3-3.4-12.5c-0.7-3-2.2-4.9-5.2-6.2c-7.1-3.1-14.1-6.7-21.1-10.1c-1.3-0.6-2.7-1.1-4-1.6
	c-0.4,1.3-1,2.7-1,4c-0.3,19.7-0.6,39.4-0.7,59.1c-0.1,10.6,0.2,21.2,0.3,31.8c0,3.6,1.7,5.6,5.4,5.7c1.5,0.4,3.1,0.7,4.6,1.1
	c1.2,0.2,2.4,0.4,3.6,0.5c1.1,0.2,2.2,0.3,3.3,0.5c0.7,0.1,1.5,0.2,2.2,0.3c4.2,0.6,8.4,1.3,12.6,1.9c0.7,0.1,1.4,0.2,2.1,0.3
	c1.1,0.1,2.1,0.2,3.2,0.4c1.2,0.2,2.3,0.3,3.5,0.5c7.6,1.1,15.3,2.4,22.8,3.9c17.5,3.5,35,6.8,52.4,10.6c2.2,0.5,3.2-0.4,3.1-2.4
	c-0.1-1.9-0.5-3.7-0.8-5.5c-0.5-3.8-1.3-7.5-1.3-11.3C259.3,634,261,624.1,261.1,623.8z M246.5,301.5c0.6,13.4,0.3,26.7,4.2,40
	c5.7,19.7,12.7,38.6,25,55.2c7,9.5,14.6,18.2,24.7,24.7c6.7,4.3,12.4,9.7,18.7,14.6c8,6.1,16.5,11.8,26.2,14.9
	c11.6,3.7,23.4,7.3,35.3,9.8c13.9,2.9,28.1,2.7,42.2,1.4c23.1-2,45.1-8.5,66.5-16.9c17.2-6.8,33.7-15.6,46.1-29.4
	c11-12.1,20.4-25.7,29.3-39.5c4.2-6.6,5.9-15,8-22.7c2.7-9.6,4.5-19.4,7.1-29c3.5-13.1,3.3-26.6,3.4-39.8c0-12.7-2.2-25.6-4.5-38.2
	c-2.1-12.1-7.1-23.4-13.6-33.8c-4.2-6.8-10.6-12.2-15.3-18.8c-9.1-12.7-20.8-22.4-33.6-31.1c-17.8-12.1-37.8-18.4-58.7-22
	c-9.2-1.6-18.6-1.8-27.9-2.5c-20.7-1.6-41.3-0.2-61.7,4c-13,2.7-25.8,6-38.1,11.6c-11.3,5.1-22.2,10.5-31.8,18.5
	c-17.1,14.2-30.4,31.2-38.6,52C249.5,249.2,244.9,274.8,246.5,301.5z M377.6,601.8c-0.4-0.2-0.8-0.4-1.2-0.6
	c-2.2,1.7-4.4,3.4-6.6,5.2c-1.6,1.3-3.1,3.1-4.9,3.9c-8.4,3.7-16.9,7.3-25.5,10.6c-3.3,1.3-7.2,1.3-10.5,2.7
	c-7.3,3-14.7,4.6-22.5,4.8c-3.1,0.1-6.3,0.5-9.2,1.4c-4.7,1.5-6.1,4.3-5.1,8.9c0.9,4.1,4.2,4.4,7.3,4.1c13.1-1.2,26.3-2,39.3-4.1
	c11.9-1.9,23.6-5.3,35.3-8c2.6-0.6,3.7-2.2,3.7-4.8c0.1-6.5,0.4-13,0.4-19.5C378.3,604.9,377.8,603.4,377.6,601.8z M129.1,541
	c-1,0.1-1.4,0-1.7,0.1c-0.6,0.2-1.1,0.6-1.6,0.9c-4.6,3.5-7.5,7.9-7.6,13.9c-0.3,26.5-0.5,52.9-0.8,79.4c0,2.3,0.4,4.6,0.5,7
	c5.6-1.1,10.8-7.7,10.9-13.2c0.2-27.7,0.5-55.4,0.7-83.1C129.7,544.3,129.3,542.7,129.1,541z M249.9,672.3c3.3-0.6,5.9-0.9,8.4-1.6
	c0.9-0.2,2.2-1.6,2-2.1c-0.3-0.9-1.3-2-2.3-2.3c-1.6-0.5-3.4-0.5-5.2-0.5c-7.8-0.3-32-3.9-36.4-4.6c-16-2.5-32.1-4.6-48.1-6.9
	c-8.7-1-20.5-4.7-30.7-7.5c-0.9-0.3-1.2-0.3-1.8-0.5c-2.7-0.3-8,3-8.2,5.4c-0.2,3.9,3,4.1,5.7,4.5c18.9,2.7,37.7,5.4,56.6,8.1
	c11.5,1.6,22.9,3.3,34.4,4.8C233.1,670.3,241.8,671.3,249.9,672.3z"/>
<path class="st1" d="M196.6,105.6c0.2,12.5-3.8,21.6-9.6,29.9c-6.7,9.4-13.6,18.8-24.3,24.4c-4.4,2.3-4.6,4.1-3.1,9
	c2,6.2,4.1,12.4,6.8,18.4c3.5,8.2,2.2,10.8-4.8,14.8c-4.1,2.4-8.5,4.2-12.9,5.9c-1.2,0.4-3.3-0.1-4.2-1c-1.4-1.4-2.5-3.5-3.1-5.4
	c-4.2-13.6-8.2-27.2-12.3-40.7c-1.3-4.3-0.4-7.5,3.3-10.1c1.6-1.2,3.4-2.2,5.2-2.9c9.6-3.7,16.6-10.6,22.5-18.5
	c6.1-8.1,6.8-18.1,7.3-27.8c0.3-5.5-4.3-9.6-9.1-10.7c-13.3-3-26.8-5.3-40.3-1.4c-10.6,3-16.7,11.2-20.7,20.9
	c-1.1,2.8-2.6,4-5.5,3.8c-4.4-0.3-8.7-0.5-13.1-0.7c-2.2-0.1-3.3-1.2-2.9-3.3c1.4-6.9,2.5-13.9,4.3-20.7
	c4.6-16.8,18.1-23.8,33.1-28.9c3.8-1.3,7.5-3.1,11.4-3.4c6.4-0.6,12.8-0.5,19.2-0.2c2.7,0.1,5.2,1.7,7.9,2
	c7.8,1.1,14.1,5.5,20.7,9.2c4.3,2.4,8.7,5,12.1,8.4C193.1,85.2,196,96.1,196.6,105.6z"/>
<path class="st1" d="M169.6,260.8c-6.5,0.5-9.2-1.9-11-5.7c-1.7-3.6-3.6-7.1-5.1-10.8c-1.4-3.6-1.6-7.5,1.5-10.4
	c3.8-3.5,7.6-7.1,12.1-9.6c4.8-2.7,9.6-0.5,11.9,4.6c2,4.5,9.9,15.9,10.2,17.8c0.3,1.6,0,4.2-1.1,5.1
	C182.2,256.7,175.1,259.4,169.6,260.8z"/>
<path class="st2" d="M376.1,686.4c-0.9,4.8-1.8,9.6-2.7,14.4C374.3,696,375.2,691.2,376.1,686.4z"/>
<path class="st2" d="M373.2,702.1c-0.5,4.7-1,9.4-1.6,14"/>
<path class="st2" d="M253.8,382.5c1.1,2.1,2.2,4.1,3.3,6.2C255.9,386.6,254.9,384.6,253.8,382.5z"/>
<path class="st2" d="M262.8,397.5c1.1,1.8,2.2,3.6,3.3,5.3C265,401.1,263.9,399.3,262.8,397.5z"/>
<path class="st2" d="M241.4,350.7c0.7,1.9,1.4,3.8,2,5.8C242.7,354.6,242.1,352.7,241.4,350.7z"/>
<path class="st2" d="M376.8,678.2c-0.1,1.6-0.2,3.1-0.4,4.7C376.6,681.3,376.7,679.7,376.8,678.2z"/>
<path class="st2" d="M237.7,336.5c0.4,1.4,0.8,2.9,1.1,4.3C238.5,339.4,238.1,337.9,237.7,336.5z"/>
<path class="st2" d="M377.6,654.8c-0.2,1.6-0.3,3.1-0.5,4.7C377.3,657.9,377.5,656.4,377.6,654.8z"/>
<path class="st2" d="M348.5,465.7c1.3,0.4,2.6,0.7,4,1.1C351.1,466.4,349.8,466.1,348.5,465.7z"/>
<path class="st2" d="M245.6,363c0.5,1.3,0.9,2.7,1.4,4C246.6,365.7,246.1,364.3,245.6,363z"/>
<path class="st2" d="M239.9,344.7c0.3,1.2,0.6,2.4,1,3.6C240.5,347.1,240.2,345.9,239.9,344.7z"/>
<path class="st2" d="M260.6,394.4c0.6,0.8,1.1,1.6,1.7,2.4C261.8,396.1,261.2,395.3,260.6,394.4z"/>
<path class="st2" d="M353.7,467.2c0.4,0.1,0.9,0.2,1.3,0.3C354.6,467.4,354.2,467.3,353.7,467.2z"/>
<path class="st2" d="M258.3,390.7c0.3,0.6,0.7,1.1,1,1.7C259,391.8,258.6,391.3,258.3,390.7z"/>
<path class="st2" d="M252.2,379.5c0.3,0.6,0.5,1.2,0.8,1.8C252.8,380.7,252.5,380.1,252.2,379.5z"/>
<path class="st2" d="M250.2,375c0.2,0.6,0.5,1.2,0.7,1.8C250.6,376.2,250.4,375.6,250.2,375z"/>
<path class="st2" d="M248.5,371.3c0.3,0.6,0.5,1.2,0.8,1.8C249,372.5,248.7,371.9,248.5,371.3z"/>
<path class="st3" d="M246.5,301.5c-1.5-26.6,3.1-52.2,12.8-76.9c8.2-20.8,21.5-37.8,38.6-52c9.6-8,20.5-13.3,31.8-18.5
	c12.3-5.6,25-8.9,38.1-11.6c20.4-4.2,40.9-5.6,61.7-4c9.3,0.7,18.8,0.9,27.9,2.5c20.9,3.7,40.9,9.9,58.7,22
	c12.8,8.7,24.4,18.4,33.6,31.1c4.7,6.5,11.1,12,15.3,18.8c6.4,10.4,11.4,21.7,13.6,33.8c2.2,12.6,4.5,25.4,4.5,38.2
	c0,13.2,0.1,26.7-3.4,39.8c-2.5,9.6-4.4,19.4-7.1,29c-2.2,7.7-3.8,16.1-8,22.7c-8.9,13.8-18.3,27.4-29.3,39.5
	c-12.5,13.8-28.9,22.6-46.1,29.4c-21.4,8.4-43.4,14.9-66.5,16.9c-14.1,1.2-28.3,1.5-42.2-1.4c-11.9-2.5-23.6-6.1-35.3-9.8
	c-9.6-3.1-17.6-9.3-25.6-15.3c-6.4-4.8-12.6-9.8-19.3-14.1c-10.1-6.5-17.7-15.3-24.7-24.7c-12.3-16.6-19.2-35.5-25-55.2
	C246.8,328.2,247.1,314.9,246.5,301.5z M392.9,385.5c5.8-0.4,11.7-0.3,17.5-1.2c3.8-0.6,7.8-1.9,11.1-3.9
	c12.6-7.7,21.8-18.6,27-32.5c5.4-14.4,2.4-29.1,0-43.6c-0.2-1.4-2-3.4-3.2-3.6c-1.5-0.2-3.4,1-4.8,2c-1,0.8-1.3,2.4-2.2,3.4
	c-1.1,1.4-2.1,3.3-3.6,3.8c-7.7,2.7-15.5,5.4-23.5,7.2c-14.4,3.4-29,6-43.5,9.4c-8,1.9-15.6,4.5-22.6-2.7c-1.2-1.2-4.9-1.1-6.8-0.3
	c-1.2,0.5-2.2,3.6-1.9,5.3c1.2,6.8,2.6,13.7,4.6,20.3c6,19.5,27.4,35.2,49.3,36.2C390.8,385.4,392.9,385.3,392.9,385.5z M342,260.8
	c-0.2-4.7-1.4-8.5-4.3-9.4c-2.7-0.8-6.1-1-8.5,0.1c-4.9,2.2-6.8,12.2-3.7,16.7c2,2.9,4.5,5.6,8.5,5.1c3.9-0.6,5.9-3.6,7-7
	C341.5,264.6,341.6,262.7,342,260.8z M421.6,242.9c0,0.9-0.2,1.8,0,2.6c1.3,5.1,4.5,9.3,9.6,8.1c8.3-2,10.9-13.3,6.9-17.9
	c-1.7-2-4.5-3.7-7-4.1C425.7,230.8,421.7,236,421.6,242.9z"/>
<path class="st2" d="M260,629.6c-0.6,8.2-0.3,17,1.1,25c0.7,2.4-0.3,4.1-3,3.4c-2.9-0.5-10.2-2.3-13.1-2.8
	c-15.6-2.8-29.9-6.2-45.6-8.9c-5.4-0.9-11-2.4-16.5-2.8c-1.2-0.2-2.3-0.3-3.5-0.5c-1.1-0.1-2.1-0.2-3.2-0.4
	c-0.7-0.1-1.4-0.2-2.1-0.3c-4.2-0.6-8.4-1.3-12.7-1.9c-0.7-0.1-1.5-0.2-2.2-0.3c-1.1-0.2-2.2-0.3-3.3-0.5c-1.2-0.2-2.4-0.4-3.6-0.5
	c-1.5-0.4-3.1-0.7-4.6-1.1c-3.7-0.1-5.4-2.2-5.4-5.7c-0.1-10.6-0.4-21.2-0.3-31.8c0.1-19.7,0.4-39.4,0.7-59.1c0-1.3,0.7-2.7,1-4
	c1.3,0.5,2.7,1,4,1.6c7,3.4,13.9,7,21.1,10.1c3,1.3,4.5,3.2,5.2,6.2c1,4.2,2.2,8.4,3.4,12.5c0.9,3.1,1.6,6.1-1.9,8.3
	c-0.4,0.2-0.8,0.7-0.9,1.2c-1.8,6.7-3.9,13.4-5.3,20.2c-0.7,3.5,2.5,8.1,5.3,9c2.4,0.7,4.2,0.2,4.9-2.5c0.4-1.7,1-3.3,1.3-5.1
	c0.5-3.4,2.5-4,5.4-3.2c3.9,1.1,7,3.2,8.2,7.4c0.5,1.7,1.3,3.2,2,4.8c2.1,5.7,4.8,6.3,11.5,4.3c1-0.3,2.2-3.1,1.8-4.4
	c-1.2-5.2-3.3-9.8-8-13c-2.4-1.6-4.4-3.9-6.5-5.9c-0.9-0.9-1.5-2.2-2.5-2.7c-5.2-2.7-5.9-7.3-5.8-12.4c0.1-4.5,0.3-9,0.4-13.4
	c0.1-2.7,1.1-4.1,4-2.8c17.5,8.1,35.1,16.1,52.5,24.5c3.1,1.5,5.6,4.4,7.8,7.1c2.1,2.5,4.3,4.3,7.6,4.9c5.3,1,5.5,1.2,5,6.7
	c-0.6,7-1.4,14-2.2,21"/>
<path class="st0" d="M377.6,601.8c0.2,1.5,0.7,3.1,0.6,4.6c-0.1,6.5-0.3,13-0.4,19.5c0,2.6-1.2,4.2-3.7,4.8c-11.8,2.7-23.4,6-35.3,8
	c-13,2.1-26.2,2.9-39.3,4.1c-3.1,0.3-6.4,0-7.3-4.1c-1-4.6,0.4-7.5,5.1-8.9c2.9-0.9,6.1-1.3,9.2-1.4c7.8-0.1,15.2-1.8,22.5-4.8
	c3.3-1.3,7.1-1.4,10.5-2.7c8.6-3.3,17-6.9,25.5-10.6c1.9-0.8,3.3-2.6,4.9-3.9c2.2-1.7,4.4-3.5,6.6-5.2
	C376.8,601.5,377.2,601.6,377.6,601.8z"/>
<path class="st2" d="M129.1,541c0.2,1.7,0.5,3.3,0.5,5c-0.2,27.7-0.5,55.4-0.7,83.1c0,5.5-5.2,12.1-10.9,13.2
	c-0.2-2.3-0.6-4.7-0.5-7c0.2-26.5,0.5-52.9,0.8-79.4c0.1-6,3-10.4,7.6-13.9c0.5-0.4,1-0.7,1.6-0.9C127.8,541,128.2,541.1,129.1,541z
	"/>
<path class="st2" d="M249.9,672.3c-8.1-1-16.8-2-25.5-3.2c-11.5-1.5-23-3.2-34.4-4.8c-18.9-2.7-37.7-5.4-56.6-8.1
	c-2.7-0.4-5.9-0.6-5.7-4.5c0.1-2.5,5.4-5.8,8.2-5.4c0.6,0.1,22,6.4,32.5,8c16,2.3,32.1,4.4,48.1,6.9c4.4,0.7,28.6,4.3,36.4,4.6
	c1.7,0.1,3.5,0.1,5.2,0.5c1,0.3,2,1.3,2.3,2.3c0.1,0.5-1.1,1.9-2,2.1C255.8,671.4,253.2,671.7,249.9,672.3z"/>
<path class="st4" d="M272.3,640.4c-1.6-7,1.8-9.3,4.2-15.5c1.1-5.4,2.2-11.2,2.2-11.4c0-2.3,0-5.6,0-7.9c0.3-0.1,0.7-0.1,1-0.2
	c3,5.2,6.4,10.4,6.6,16.7c0.1,3.2-2.5,21.3-3.4,27.2c-0.2,1.5-1.2,3-1.9,4.4c-1.4-0.7-3.8-1.9-5.2-2.6c-0.3-0.1-2.3-4.4-3-7"/>
<path class="st0" d="M161.5,640.4c4.2,0.6,8.4,1.3,12.7,1.9C169.9,641.7,165.7,641,161.5,640.4z"/>
<path class="st0" d="M147.8,638c1.5,0.4,3.1,0.7,4.6,1.1C150.9,638.7,149.3,638.3,147.8,638z"/>
<path class="st0" d="M156.1,639.6c1.1,0.2,2.2,0.3,3.3,0.5C158.2,639.9,157.1,639.7,156.1,639.6z"/>
<path class="st0" d="M176.3,642.6c1.1,0.1,2.1,0.2,3.2,0.4C178.4,642.9,177.3,642.7,176.3,642.6z"/>
<path class="st0" d="M261.1,623.8c0.3-0.7,0.7-1.4,1-2.1C261.8,622.4,261.5,623.1,261.1,623.8z"/>
<path class="st2" d="M273.7,646.6c0.3,0.6,0.6,1.2,0.8,1.8C274.3,647.8,274,647.2,273.7,646.6z"/>
<path class="st1" d="M391.5,385.5c-22.8-0.5-44.4-16.7-50.4-36.2c-2-6.6-3.4-13.5-4.6-20.3c-0.3-1.7,0.7-4.8,1.9-5.3
	c2-0.8,5.6-1,6.8,0.3c7,7.2,14.6,4.6,22.6,2.7c14.4-3.4,29-6,43.5-9.4c8-1.9,15.7-4.6,23.5-7.2c1.5-0.5,2.5-2.4,3.6-3.8
	c0.8-1.1,1.2-2.7,2.2-3.4c1.4-1,3.3-2.2,4.8-2c1.3,0.2,3,2.2,3.2,3.6c2.4,14.5,5.4,29.2,0,43.6c-5.2,13.8-14.4,24.7-27,32.5
	c-3.3,2-7.3,3.3-11.1,3.9c-5.8,0.9-11.7,0.9-17.5,1.2 M440.6,322.2c-3.7,0.7-6.8,1.1-9.7,2c-18.8,5.8-38.2,8.9-57.5,12.6
	c-6.1,1.2-12.4,1.4-18.6,2c-5,0.5-6.2,1.9-4.1,6.4c3.5,7.5,7.8,14.4,14.8,19.4c9.2,6.6,19.7,8.1,30.6,8c7-0.1,14.1,0.1,20.5-3.4
	c12.2-6.6,19.8-17,23-30.2C440.9,333.7,440.3,328,440.6,322.2z"/>
<path class="st1" d="M342,260.8c-0.3,1.8-0.4,3.7-1,5.5c-1.2,3.4-3.1,6.5-7,7c-4,0.6-6.5-2.1-8.5-5.1c-3.1-4.5-1.1-14.4,3.7-16.7
	c2.4-1.1,5.9-0.8,8.5-0.1C340.5,252.3,341.8,256.1,342,260.8z"/>
<path class="st1" d="M421.6,242.9c0.1-6.9,4.1-12.1,9.5-11.3c2.5,0.4,5.3,2.1,7,4.1c4,4.6,1.4,15.9-6.9,17.9c-5,1.2-8.2-3-9.6-8.1
	C421.4,244.7,421.6,243.8,421.6,242.9z"/>
<path class="st3" d="M440.6,322.2c-0.3,5.8,0.3,11.6-1,16.8c-3.3,13.2-10.8,23.6-23,30.2c-6.4,3.4-13.5,3.3-20.5,3.4
	c-10.9,0.1-21.3-1.4-30.6-8c-7-5-11.3-11.9-14.8-19.4c-2.1-4.6-0.9-5.9,4.1-6.4c6.2-0.6,12.5-0.9,18.6-2
	c19.3-3.7,38.7-6.8,57.5-12.6C433.9,323.3,437,322.9,440.6,322.2z"/>
</svg>
