<?xml version="1.0" encoding="utf-8"?>
<!-- Generator: Adobe Illustrator 26.0.2, SVG Export Plug-In . SVG Version: 6.00 Build 0)  -->
<svg version="1.1" id="图层_1" xmlns="http://www.w3.org/2000/svg" xmlns:xlink="http://www.w3.org/1999/xlink" x="0px" y="0px"
	 viewBox="0 0 720 720" enable-background="new 0 0 720 720" xml:space="preserve">
<path fill="#FE3D47" d="M572.404,720c-10.489,0-20.978,0-31.467,0c0.05-6.117-0.127-12.245,0.19-18.347
	c1.275-24.526,3.226-49.03,3.938-73.57c0.817-28.191,0.61-56.411,0.77-84.619c0.013-2.345-0.398-4.732-0.941-7.021
	c-0.209-0.882-1.323-2.135-2.047-2.151c-0.787-0.017-1.976,1.062-2.318,1.928c-0.58,1.473-0.689,3.145-0.898,4.747
	c-0.613,4.698-0.518,9.605-1.888,14.065c-3.766,12.267-3.706,24.851-4.107,37.427c-0.382,11.976-0.509,23.964-1.121,35.927
	c-1.307,25.529-2.942,51.041-4.214,76.572c-0.187,3.744-1.286,4.883-5.015,4.924c-6.211,0.068-12.417,0.769-18.62,1.264
	c-3.948,0.315-7.914,1.244-11.825,1.03c-16.8-0.921-33.577-2.267-50.374-3.254c-12.33-0.724-24.676-1.169-37.018-1.661
	c-5.469-0.218-10.946-0.213-16.418-0.372c-3.029-0.088-3.572-1.736-3.139-4.541c1.533-9.945,3.814-19.902,4.046-29.895
	c0.647-27.825,0.428-55.671,0.505-83.508c0.019-6.74-0.078-13.483-0.232-20.222c-0.317-13.845-0.771-27.687-1.045-41.533
	c-0.143-7.225-0.001-14.454-0.031-21.682c-0.032-7.576-0.799-15.225-0.003-22.709c0.984-9.248,1.541-8.951,10.944-9.09
	c11.067-0.164,22.246,0.078,33.165-1.407c22.463-3.056,43.827-10.504,65.019-18.34c5.02-1.856,10.087-3.586,15.129-5.382
	c5.585-1.99,11.065-4.37,16.773-5.896c9.13-2.442,16.077,3.174,18.411,11.899c0.9,3.363,2.045,6.661,3.087,9.987
	c4.131,13.191,9.31,26.163,12.123,39.629c3.252,15.566,4.835,31.526,6.385,47.389c1.806,18.478,3.339,37.018,3.974,55.565
	c0.589,17.194-0.133,34.435-0.328,51.655c-0.215,18.968-0.475,37.935-0.763,56.902C573.029,717.141,572.628,718.569,572.404,720z"/>
<path fill="#090B08" d="M383.6,720c-3.996,0-7.992,0-11.987,0c0.007-1.297,0.014-2.594,0.021-3.889
	c0.522-4.677,1.043-9.356,1.565-14.035c0.072-0.436,0.144-0.873,0.216-1.308c0.909-4.798,1.818-9.597,2.728-14.396
	c0.115-1.18,0.23-2.36,0.344-3.538c0.118-1.552,0.237-3.106,0.355-4.66c0.14-1.442,0.281-2.885,0.421-4.326
	c0.119-1.055,0.238-2.112,0.358-3.169c-0.01-0.828-0.019-1.657-0.029-2.484c-0.048-0.42-0.095-0.842-0.143-1.264
	c-0.09-2.48-0.181-4.96-0.272-7.438c0.151-1.557,0.303-3.116,0.454-4.675c0.127-1.039,0.255-2.077,0.382-3.114
	c0.161-1.473,0.372-2.944,0.47-4.423c0.147-2.219-0.969-2.771-3.04-2.408c-8.268,1.449-16.566,2.732-24.821,4.25
	c-2.403,0.442-4.654,1.866-7.055,2.143c-11.735,1.356-23.476,2.816-35.259,3.552c-7.012,0.438-13.606,1.365-19.391,5.605
	c-5.588,0.437-9.436,4.139-13.236,7.546c-4.35,3.902-8.263,8.306-12.223,12.623c-2.204,2.403-4.816,3.679-7.966,3.264
	c-10.343-1.364-20.657-2.944-30.995-4.345c-6.788-0.92-13.614-1.573-20.397-2.527c-11.962-1.683-23.884-3.663-35.861-5.222
	c-11.232-1.462-22.518-2.508-33.772-3.802c-5.436-0.625-10.84-1.573-16.287-2.061c-8.119-0.727-11.438-3.25-12.351-11.456
	c-1.129-10.15-2.092-20.375-2.161-30.573c-0.139-20.585,0.307-41.176,0.678-61.761c0.076-4.222,0.507-8.519,1.471-12.617
	c0.748-3.181,1.911-6.735,4.058-9.028c6.808-7.272,14.16-14.034,21.309-20.985c2.059-2.002,4.316-2.274,6.799-0.77
	c20.771,12.578,43.353,21.171,65.717,30.338c15.439,6.329,30.353,13.94,45.496,20.99c0.673,0.313,1.391,0.642,1.916,1.143
	c3.874,3.692,8.4,4.456,13.524,3.454c7.182-1.404,12.599,1.847,16.415,7.498c6.147,9.104,11.539,18.658,13.917,29.564
	c0.731,3.354,2.031,4.512,5.92,3.857c14.258-2.403,28.629-4.129,42.321-9.149c10.82-3.967,20.862-9.177,27.753-18.769
	c2.106-2.932,3.815-6.608,4.325-10.143c1.735-12.04,3.199-24.058,2.554-36.385c-1.076-20.554-1.03-41.167-1.476-61.754
	c-0.027-1.24-0.226-2.477-0.345-3.713c0.515-2.67-0.327-4.965-3.009-5.498c-5.141-1.02-10.379-1.547-15.577-2.279
	c-0.803-0.128-1.606-0.256-2.408-0.383c-0.436-0.104-0.874-0.208-1.312-0.313c-0.416-0.123-0.832-0.246-1.246-0.368
	c-1.32-0.356-2.642-0.712-3.965-1.069c-0.425-0.144-0.851-0.288-1.274-0.43c-7.803-3.51-15.607-7.022-23.412-10.534
	c-0.214-0.13-0.427-0.259-0.639-0.388c-1.073-0.973-2.073-2.047-3.233-2.906c-8.697-6.44-17.751-12.445-26.046-19.364
	c-7.419-6.188-14.012-13.367-20.969-20.109c0,0-0.108-0.14-0.107-0.139c-2.207-2.956-4.414-5.913-6.622-8.869
	c0,0-0.098-0.138-0.097-0.137c-1.115-1.78-2.23-3.561-3.346-5.342c-0.145-0.216-0.29-0.432-0.434-0.647
	c-0.558-0.805-1.117-1.611-1.676-2.418c-0.445-0.682-0.89-1.364-1.334-2.045c-0.347-0.558-0.694-1.118-1.042-1.677
	c-0.414-0.682-0.827-1.363-1.24-2.044c-1.085-2.055-2.171-4.11-3.257-6.166c-0.253-0.412-0.505-0.823-0.757-1.234
	c-0.261-0.59-0.522-1.181-0.784-1.772c-0.461-0.917-0.922-1.835-1.382-2.75c-0.227-0.583-0.454-1.168-0.682-1.753
	c-0.307-0.653-0.614-1.306-0.92-1.958c-0.252-0.583-0.505-1.168-0.758-1.753c-0.488-1.421-0.977-2.841-1.465-4.26
	c-0.466-1.343-0.932-2.688-1.399-4.032c-0.742-2.167-1.483-4.334-2.224-6.5c-0.678-1.917-1.356-3.837-2.034-5.756
	c-0.17-0.801-0.339-1.603-0.508-2.402c-0.321-1.21-0.642-2.421-0.963-3.632c-0.346-1.294-0.692-2.588-1.037-3.881
	c-0.38-1.448-0.761-2.896-1.141-4.345c-0.137-0.552-0.274-1.104-0.41-1.655c-0.864-9.376-1.866-18.744-2.545-28.136
	c-0.473-6.547-0.503-13.127-0.731-19.692c2.098-14.408,3.675-28.917,6.428-43.199c3.36-17.428,11.407-33.039,20.804-47.979
	c4.435-7.052,8.243-14.55,14.848-19.968c4.815-3.95,9.987-7.518,14.469-11.811c10.746-10.294,23.44-17.241,37.242-22.235
	c10.864-3.931,21.94-7.278,32.917-10.901c1.178-0.389,2.32-0.889,3.478-1.336c2.593-0.648,5.163-1.421,7.786-1.917
	c4.569-0.863,9.171-1.556,13.759-2.32c0.595-0.028,1.19-0.056,1.784-0.084c1.338,0.115,2.678,0.329,4.017,0.328
	c12.816-0.004,25.632-0.091,38.447-0.05c5.197,0.017,10.393,0.291,15.589,0.449c0.832,0.043,1.665,0.086,2.496,0.129
	c7.022,1.498,14.014,3.165,21.075,4.46c13.345,2.448,26.037,6.559,38.027,13.055c14.633,7.928,27.347,18.409,39.309,29.697
	c8.484,8.006,15.835,17.23,23.524,26.057c8.749,10.044,13.85,22.108,17.922,34.552c2.529,7.728,4.06,15.783,6.038,23.69
	c0.046,0.839,0.092,1.679,0.138,2.516c0.018,3.579-0.277,7.195,0.107,10.736c1.675,15.451,0.972,30.863-1.006,46.189
	c-0.902,6.99-3.315,13.771-4.618,20.727c-2.955,15.773-8.528,30.644-15.324,45.069c-2.734,5.803-6.266,11.23-9.434,16.828
	c-6.216,8.718-12.428,17.438-18.65,26.151c-1.554,2.176-1.476,4.27,0.591,5.966c9.36,7.683,13.765,18.525,18.153,29.197
	c7.959,19.357,11.779,39.892,15.582,60.336c1.909,10.263,2.102,20.834,3.419,31.222c4.965,39.145,3.753,78.433,3.037,117.718
	c-0.277,15.216-0.294,30.437-0.401,45.656c-0.009,1.355,0.195,2.711,0.301,4.067c-4.495,0-8.991,0-13.486,0
	c0.225-1.431,0.625-2.859,0.647-4.293c0.288-18.967,0.548-37.934,0.763-56.902c0.195-17.22,0.917-34.46,0.328-51.655
	c-0.635-18.548-2.168-37.087-3.974-55.565c-1.55-15.863-3.134-31.824-6.385-47.389c-2.813-13.466-7.992-26.438-12.123-39.629
	c-1.041-3.325-2.187-6.623-3.087-9.987c-2.333-8.726-9.28-14.341-18.411-11.899c-5.708,1.527-11.188,3.907-16.773,5.896
	c-5.042,1.796-10.109,3.526-15.129,5.382c-21.193,7.836-42.556,15.285-65.019,18.34c-10.919,1.485-22.098,1.243-33.165,1.407
	c-9.403,0.14-9.96-0.158-10.944,9.09c-0.796,7.485-0.029,15.133,0.003,22.709c0.03,7.227-0.112,14.457,0.031,21.682
	c0.274,13.846,0.728,27.688,1.045,41.533c0.154,6.739,0.251,13.481,0.232,20.222c-0.077,27.838,0.142,55.683-0.505,83.508
	c-0.232,9.993-2.513,19.95-4.046,29.895c-0.432,2.805,0.111,4.453,3.139,4.541c5.472,0.159,10.949,0.154,16.418,0.372
	c12.342,0.492,24.689,0.936,37.018,1.661c16.797,0.987,33.574,2.333,50.374,3.254c3.91,0.214,7.877-0.714,11.825-1.03
	c6.203-0.495,12.409-1.196,18.62-1.264c3.729-0.041,4.828-1.179,5.015-4.924c1.272-25.53,2.906-51.043,4.214-76.572
	c0.613-11.963,0.74-23.951,1.121-35.927c0.401-12.575,0.341-25.16,4.107-37.427c1.369-4.461,1.275-9.367,1.888-14.065
	c0.209-1.601,0.318-3.274,0.898-4.747c0.341-0.866,1.531-1.945,2.318-1.928c0.724,0.015,1.838,1.269,2.047,2.151
	c0.543,2.289,0.954,4.676,0.941,7.021c-0.161,28.208,0.047,56.429-0.77,84.619c-0.711,24.541-2.663,49.044-3.938,73.57
	c-0.317,6.103-0.14,12.231-0.19,18.347c-47.201,0-94.402,0-141.603,0 M272.154,634.881c-0.521,2.744,0.311,5.744,0.576,8.637
	c0.33,1.031,0.66,2.062,0.989,3.092c0.282,0.598,0.564,1.195,0.846,1.793c0.436,0.904,0.873,1.809,1.309,2.713
	c1.742,0.872,3.483,1.745,5.225,2.617c0.647-1.478,1.635-2.901,1.88-4.443c0.928-5.839,1.635-11.714,2.384-17.581
	c0.407-3.187,1.111-6.395,1.013-9.573c-0.196-6.346-3.551-11.5-6.6-16.71c-0.346,0.068-0.692,0.136-1.038,0.204
	c0,2.637,0,5.274,0,7.911c-0.748,3.802-1.495,7.605-2.243,11.407 M261.148,623.775c0.345-0.702,0.69-1.403,1.035-2.105
	c0.735-7.015,1.55-14.023,2.179-21.048c0.49-5.47,0.338-5.691-4.971-6.688c-3.289-0.618-5.509-2.377-7.623-4.894
	c-2.265-2.695-4.775-5.657-7.837-7.133c-17.399-8.388-34.995-16.369-52.526-24.483c-2.893-1.339-3.896,0.054-3.98,2.777
	c-0.138,4.481-0.302,8.961-0.436,13.443c-0.152,5.084,0.559,9.723,5.76,12.393c1.037,0.532,1.651,1.843,2.549,2.7
	c2.132,2.034,4.115,4.311,6.526,5.948c4.696,3.191,6.826,7.879,8.002,13.032c0.303,1.33-0.831,4.13-1.848,4.433
	c-6.663,1.988-9.332,1.39-11.473-4.315c-0.612-1.632-1.464-3.184-1.959-4.847c-1.242-4.174-4.275-6.285-8.208-7.381
	c-2.865-0.798-4.892-0.147-5.379,3.236c-0.246,1.709-0.831,3.37-1.266,5.051c-0.692,2.677-2.459,3.179-4.887,2.469
	c-2.754-0.805-6.018-5.418-5.29-8.954c1.403-6.812,3.457-13.491,5.279-20.214c0.121-0.446,0.481-0.944,0.874-1.182
	c3.497-2.122,2.801-5.133,1.896-8.271c-1.201-4.163-2.383-8.335-3.417-12.541c-0.736-2.996-2.23-4.888-5.238-6.199
	c-7.137-3.111-14.054-6.729-21.076-10.108c-1.292-0.622-2.662-1.082-3.996-1.616c-0.35,1.343-0.986,2.682-1.007,4.03
	c-0.305,19.707-0.606,39.416-0.737,59.125c-0.07,10.6,0.181,21.202,0.298,31.803c0.039,3.552,1.678,5.63,5.396,5.737
	c1.544,0.353,3.087,0.706,4.631,1.059c1.213,0.181,2.425,0.361,3.638,0.542c1.087,0.164,2.174,0.328,3.262,0.492
	c0.731,0.113,1.462,0.226,2.193,0.339c4.215,0.637,8.43,1.274,12.645,1.911c0.703,0.1,1.406,0.2,2.109,0.299
	c1.055,0.123,2.109,0.246,3.164,0.37c1.17,0.153,2.34,0.307,3.51,0.46c7.586,1.117,15.237,1.91,22.745,3.415
	c17.532,3.514,34.998,7.356,52.482,11.106c2.159,0.463,3.175-0.376,3.065-2.439c-0.098-1.851-0.524-3.682-0.755-5.528
	c-0.47-3.766-1.314-7.543-1.252-11.303c0.078-4.69,0.914-9.368,1.422-14.052C260.814,624.356,260.981,624.066,261.148,623.775z
	 M246.456,301.464c0.635,13.389,0.331,26.721,4.202,39.979c5.745,19.677,12.656,38.603,24.953,55.197
	c7.009,9.458,14.639,18.25,24.725,24.744c6.698,4.313,12.959,9.32,19.318,14.144c7.976,6.051,15.96,12.241,25.579,15.322
	c11.619,3.722,23.351,7.295,35.269,9.826c13.864,2.944,28.068,2.671,42.158,1.434c23.054-2.025,45.061-8.494,66.467-16.924
	c17.223-6.783,33.684-15.617,46.148-29.368c10.969-12.101,20.436-25.732,29.293-39.506c4.231-6.58,5.864-14.959,8.037-22.702
	c2.69-9.583,4.534-19.4,7.077-29.028c3.456-13.088,3.331-26.567,3.355-39.806c0.023-12.729-2.233-25.555-4.456-38.168
	c-2.13-12.082-7.139-23.405-13.575-33.764c-4.229-6.806-10.615-12.233-15.345-18.775c-9.148-12.653-20.803-22.413-33.576-31.092
	c-17.807-12.1-37.842-18.364-58.722-22.042c-9.172-1.616-18.605-1.773-27.926-2.503c-20.747-1.625-41.314-0.171-61.677,3.996
	c-13.039,2.668-25.803,6.022-38.066,11.614c-11.277,5.143-22.19,10.504-31.789,18.487c-17.115,14.234-30.423,31.227-38.614,52.005
	C249.549,249.243,244.917,274.845,246.456,301.464z M377.587,601.835c-0.404-0.186-0.808-0.372-1.212-0.559
	c-2.208,1.727-4.425,3.443-6.62,5.186c-1.643,1.304-3.067,3.074-4.917,3.891c-8.414,3.716-16.886,7.318-25.462,10.641
	c-3.333,1.292-7.167,1.312-10.467,2.66c-7.251,2.96-14.657,4.647-22.495,4.786c-3.079,0.055-6.26,0.457-9.19,1.362
	c-4.702,1.452-6.134,4.314-5.135,8.928c0.886,4.091,4.167,4.403,7.316,4.113c13.125-1.207,26.323-2.047,39.316-4.133
	c11.89-1.909,23.551-5.251,35.314-7.952c2.582-0.593,3.702-2.219,3.749-4.833c0.115-6.485,0.368-12.967,0.449-19.452
	C378.253,604.931,377.815,603.381,377.587,601.835z M129.127,541.01c-0.968,0.055-1.371-0.016-1.686,0.117
	c-0.568,0.241-1.122,0.553-1.614,0.925c-4.614,3.497-7.511,7.922-7.569,13.917c-0.256,26.452-0.546,52.903-0.77,79.355
	c-0.02,2.308,0.351,4.619,0.543,6.968c5.648-1.128,10.843-7.663,10.891-13.207c0.244-27.702,0.504-55.404,0.718-83.107
	C129.653,544.331,129.308,542.68,129.127,541.01z M249.931,672.316c3.257-0.606,5.856-0.936,8.351-1.639
	c0.854-0.241,2.153-1.637,2.003-2.117c-0.29-0.929-1.347-1.983-2.297-2.259c-1.634-0.475-3.427-0.465-5.158-0.534
	c-7.847-0.313-15.735-0.205-23.529-1.017c-4.37-0.455-8.505-2.914-12.882-3.596c-16.01-2.495-32.084-4.578-48.121-6.907
	c-10.448-1.518-21.173-1.958-30.667-7.452c-0.521-0.301-1.18-0.424-1.791-0.498c-2.741-0.334-8.042,2.96-8.165,5.427
	c-0.192,3.853,3.009,4.092,5.703,4.483c18.866,2.735,37.739,5.424,56.614,8.102c11.47,1.627,22.94,3.253,34.422,4.794
	C233.118,670.269,241.84,671.302,249.931,672.316z"/>
<path fill="#090B08" d="M196.633,105.64c0.19,12.517-3.762,21.648-9.613,29.861c-6.714,9.423-13.574,18.803-24.327,24.388
	c-4.408,2.29-4.615,4.112-3.085,8.972c1.965,6.241,4.133,12.358,6.752,18.405c3.539,8.169,2.178,10.8-4.803,14.825
	c-4.082,2.353-8.485,4.208-12.891,5.903c-1.159,0.446-3.342-0.076-4.217-0.972c-1.409-1.443-2.468-3.459-3.071-5.419
	c-4.172-13.555-8.184-27.159-12.256-40.745c-1.299-4.335-0.364-7.496,3.294-10.129c1.603-1.153,3.374-2.172,5.212-2.882
	c9.559-3.692,16.592-10.57,22.541-18.486c6.11-8.131,6.829-18.131,7.317-27.782c0.278-5.483-4.27-9.589-9.127-10.678
	c-13.252-2.972-26.795-5.255-40.275-1.388c-10.612,3.044-16.684,11.162-20.655,20.911c-1.139,2.796-2.567,4.028-5.474,3.843
	c-4.355-0.277-8.715-0.494-13.076-0.682c-2.192-0.095-3.339-1.189-2.923-3.325c1.351-6.937,2.471-13.947,4.343-20.747
	c4.628-16.816,18.123-23.78,33.099-28.881c3.77-1.284,7.536-3.062,11.416-3.429c6.367-0.603,12.835-0.451,19.241-0.178
	c2.668,0.114,5.246,1.658,7.938,2.028c7.815,1.075,14.108,5.477,20.656,9.241c4.263,2.45,8.723,4.978,12.122,8.43
	C193.13,85.212,196.03,96.103,196.633,105.64z"/>
<path fill="#090B08" d="M169.617,260.757c-6.495,0.512-9.22-1.85-11.012-5.699c-1.678-3.606-3.628-7.1-5.08-10.792
	c-1.431-3.637-1.605-7.544,1.516-10.419c3.791-3.493,7.645-7.148,12.084-9.646c4.842-2.724,9.568-0.522,11.854,4.646
	c1.993,4.506,3.163,9.35,7.486,12.588c1.436,1.076,2.381,3.333,2.712,5.199c0.288,1.629,0.002,4.192-1.075,5.091
	C182.183,256.669,175.148,259.439,169.617,260.757z"/>
<path fill="#EAAAA4" d="M376.143,686.372c-0.909,4.799-1.819,9.598-2.728,14.396C374.324,695.968,375.234,691.17,376.143,686.372z"
	/>
<path fill="#EAAAA4" d="M373.199,702.075c-0.522,4.679-1.043,9.358-1.565,14.035"/>
<path fill="#EAAAA4" d="M253.777,382.515c1.086,2.056,2.172,4.112,3.257,6.166C255.948,386.625,254.863,384.57,253.777,382.515z"/>
<path fill="#EAAAA4" d="M262.76,397.511c1.116,1.781,2.231,3.562,3.346,5.342C264.99,401.072,263.875,399.291,262.76,397.511z"/>
<path fill="#EAAAA4" d="M241.373,350.747c0.678,1.919,1.356,3.839,2.034,5.756C242.729,354.583,242.051,352.665,241.373,350.747z"/>
<path fill="#EAAAA4" d="M376.842,678.174c-0.118,1.554-0.237,3.107-0.355,4.66C376.606,681.279,376.724,679.727,376.842,678.174z"/>
<path fill="#EAAAA4" d="M237.724,336.487c0.38,1.449,0.761,2.898,1.141,4.345C238.484,339.383,238.104,337.935,237.724,336.487z"/>
<path fill="#EAAAA4" d="M377.632,654.818c-0.152,1.559-0.303,3.118-0.454,4.675C377.329,657.934,377.481,656.376,377.632,654.818z"
	/>
<path fill="#EAAAA4" d="M348.506,465.728c1.322,0.357,2.645,0.713,3.965,1.069C351.147,466.44,349.826,466.084,348.506,465.728z"/>
<path fill="#EAAAA4" d="M245.631,363.002c0.466,1.345,0.933,2.689,1.399,4.032C246.563,365.69,246.097,364.346,245.631,363.002z"/>
<path fill="#EAAAA4" d="M239.902,344.712c0.321,1.211,0.642,2.423,0.963,3.632C240.543,347.133,240.222,345.923,239.902,344.712z"/>
<path fill="#EAAAA4" d="M377.621,670.679c-0.119,1.057-0.239,2.113-0.358,3.169C377.383,672.791,377.502,671.735,377.621,670.679z"
	/>
<path fill="#EAAAA4" d="M260.65,394.447c0.559,0.806,1.118,1.613,1.676,2.418C261.766,396.057,261.208,395.252,260.65,394.447z"/>
<path fill="#EAAAA4" d="M353.716,467.165c0.438,0.104,0.876,0.209,1.312,0.313C354.59,467.373,354.153,467.269,353.716,467.165z"/>
<path fill="#EAAAA4" d="M258.274,390.725c0.348,0.559,0.695,1.119,1.042,1.677C258.969,391.842,258.621,391.283,258.274,390.725z"/>
<path fill="#EAAAA4" d="M252.237,379.509c0.262,0.591,0.523,1.182,0.784,1.772C252.759,380.69,252.498,380.099,252.237,379.509z"/>
<path fill="#EAAAA4" d="M250.172,375.006c0.228,0.585,0.455,1.17,0.682,1.753C250.627,376.174,250.399,375.59,250.172,375.006z"/>
<path fill="#EAAAA4" d="M248.494,371.295c0.253,0.585,0.506,1.17,0.758,1.753C248.999,372.463,248.747,371.879,248.494,371.295z"/>
<path fill="#EAAAA4" d="M377.449,666.931c0.048,0.422,0.095,0.844,0.143,1.264C377.545,667.773,377.497,667.352,377.449,666.931z"/>
<path fill="#FEFEFE" d="M246.456,301.464c-1.539-26.62,3.094-52.221,12.835-76.932c8.191-20.778,21.499-37.771,38.614-52.005
	c9.599-7.983,20.512-13.344,31.789-18.487c12.263-5.593,25.027-8.946,38.066-11.614c20.363-4.167,40.931-5.621,61.677-3.996
	c9.321,0.73,18.755,0.887,27.926,2.503c20.881,3.678,40.915,9.942,58.722,22.042c12.772,8.679,24.428,18.439,33.576,31.092
	c4.73,6.543,11.116,11.969,15.345,18.775c6.436,10.359,11.445,21.683,13.575,33.764c2.223,12.613,4.479,25.439,4.456,38.168
	c-0.024,13.239,0.101,26.719-3.355,39.806c-2.543,9.628-4.387,19.445-7.077,29.028c-2.173,7.743-3.806,16.122-8.037,22.702
	c-8.857,13.774-18.324,27.404-29.293,39.506c-12.464,13.751-28.925,22.585-46.148,29.368c-21.405,8.43-43.413,14.899-66.467,16.924
	c-14.091,1.238-28.294,1.511-42.158-1.434c-11.918-2.531-23.65-6.104-35.269-9.826c-9.619-3.081-17.603-9.271-25.579-15.322
	c-6.359-4.824-12.619-9.831-19.318-14.144c-10.086-6.494-17.716-15.286-24.725-24.744c-12.297-16.595-19.208-35.521-24.953-55.197
	C246.787,328.185,247.09,314.853,246.456,301.464z M392.905,385.093c0.007,0.12,0.014,0.241,0.02,0.361
	c5.844-0.367,11.748-0.348,17.511-1.237c3.839-0.592,7.847-1.876,11.14-3.894c12.609-7.73,21.797-18.627,27.004-32.476
	c5.418-14.41,2.379-29.06,0.018-43.572c-0.228-1.399-1.971-3.376-3.239-3.566c-1.501-0.226-3.433,0.95-4.829,1.988
	c-1.012,0.752-1.344,2.357-2.181,3.423c-1.088,1.387-2.144,3.296-3.618,3.8c-7.749,2.652-15.524,5.363-23.481,7.246
	c-14.425,3.414-29.035,6.042-43.468,9.423c-7.989,1.872-15.615,4.533-22.597-2.714c-1.201-1.247-4.854-1.087-6.84-0.273
	c-1.222,0.501-2.249,3.623-1.948,5.316c1.219,6.839,2.583,13.705,4.631,20.333c6.025,19.506,27.228,39.756,50.382,35.852
	C391.895,385.021,392.406,385.093,392.905,385.093z M341.967,260.823c-0.188-4.71-1.421-8.533-4.329-9.368
	c-2.658-0.763-6.127-1.024-8.511,0.074c-4.89,2.25-6.835,12.171-3.74,16.698c2.012,2.943,4.498,5.641,8.519,5.076
	c3.927-0.552,5.863-3.569,7.032-7.006C341.528,264.556,341.639,262.652,341.967,260.823z M421.624,242.927
	c0,0.87-0.182,1.787,0.03,2.602c1.339,5.145,4.527,9.332,9.577,8.119c8.322-1.999,10.911-13.296,6.908-17.937
	c-1.691-1.961-4.504-3.667-7.026-4.052C425.742,230.841,421.703,235.983,421.624,242.927z"/>
<path fill="#EAAAA4" d="M260.037,629.579c-0.612,8.206-1.297,16.686,1.11,24.953c0.713,2.449-0.59,3.816-2.981,3.436
	c-2.926-0.465-10.223-2.301-13.138-2.829c-15.606-2.829-29.924-6.228-45.562-8.866c-5.448-0.919-11.002-2.359-16.527-2.826
	c-1.17-0.153-2.34-0.307-3.504-0.458c-1.053-0.123-2.111-0.247-3.17-0.371c-0.703-0.1-1.406-0.2-2.102-0.299
	c-4.213-0.637-8.432-1.275-12.651-1.912c-0.731-0.113-1.462-0.226-2.188-0.338c-1.086-0.164-2.176-0.328-3.266-0.493
	c-1.213-0.181-2.425-0.361-3.632-0.541c-1.542-0.353-3.089-0.706-4.637-1.06c-3.718-0.107-5.357-2.185-5.396-5.737
	c-0.117-10.601-0.368-21.203-0.298-31.803c0.131-19.709,0.433-39.417,0.737-59.125c0.021-1.348,0.657-2.687,1.007-4.03
	c1.334,0.535,2.704,0.995,3.996,1.616c7.022,3.379,13.938,6.996,21.076,10.108c3.008,1.311,4.502,3.203,5.238,6.199
	c1.034,4.207,2.217,8.378,3.417,12.541c0.905,3.138,1.601,6.149-1.896,8.271c-0.392,0.238-0.753,0.736-0.874,1.182
	c-1.822,6.724-3.876,13.402-5.279,20.214c-0.728,3.536,2.536,8.149,5.29,8.954c2.427,0.71,4.195,0.208,4.887-2.469
	c0.435-1.682,1.02-3.342,1.266-5.051c0.487-3.382,2.514-4.033,5.379-3.236c3.933,1.095,6.965,3.207,8.208,7.381
	c0.495,1.663,1.347,3.215,1.959,4.847c2.14,5.705,4.81,6.303,11.473,4.315c1.017-0.303,2.151-3.104,1.848-4.433
	c-1.176-5.153-3.306-9.841-8.002-13.032c-2.411-1.638-4.394-3.914-6.526-5.948c-0.899-0.857-1.512-2.168-2.549-2.7
	c-5.202-2.67-5.912-7.309-5.76-12.393c0.134-4.481,0.298-8.961,0.436-13.443c0.084-2.723,1.087-4.116,3.98-2.777
	c17.531,8.114,35.127,16.094,52.526,24.483c3.063,1.476,5.572,4.438,7.837,7.133c2.115,2.516,4.334,4.276,7.623,4.894
	c5.309,0.997,5.46,1.218,4.971,6.688c-0.629,7.025-1.444,14.033-2.179,21.04c-0.345,0.699-0.69,1.406-1.035,2.113"/>
<path fill="#FE3D47" d="M377.587,601.835c0.228,1.547,0.666,3.096,0.647,4.64c-0.081,6.485-0.333,12.967-0.449,19.452
	c-0.046,2.614-1.167,4.24-3.749,4.833c-11.764,2.701-23.424,6.043-35.314,7.952c-12.993,2.086-26.191,2.925-39.316,4.133
	c-3.15,0.29-6.43-0.023-7.316-4.113c-1-4.614,0.433-7.476,5.135-8.928c2.93-0.905,6.111-1.307,9.19-1.362
	c7.838-0.139,15.244-1.826,22.495-4.786c3.3-1.347,7.134-1.368,10.467-2.66c8.575-3.323,17.048-6.925,25.462-10.641
	c1.851-0.817,3.275-2.588,4.917-3.891c2.195-1.743,4.412-3.458,6.62-5.186C376.779,601.462,377.183,601.648,377.587,601.835z"/>
<path fill="#EAAAA4" d="M129.127,541.01c0.181,1.67,0.526,3.321,0.514,4.97c-0.214,27.702-0.474,55.404-0.718,83.107
	c-0.049,5.543-5.244,12.079-10.891,13.207c-0.192-2.349-0.563-4.66-0.543-6.968c0.224-26.452,0.513-52.903,0.77-79.355
	c0.058-5.995,2.955-10.42,7.569-13.917c0.492-0.373,1.046-0.685,1.614-0.925C127.756,540.994,128.159,541.066,129.127,541.01z"/>
<path fill="#EAAAA4" d="M249.931,672.316c-8.091-1.015-16.813-2.047-25.517-3.215c-11.482-1.541-22.952-3.167-34.422-4.794
	c-18.875-2.677-37.748-5.366-56.614-8.102c-2.694-0.391-5.894-0.63-5.703-4.483c0.123-2.466,5.423-5.761,8.165-5.427
	c0.611,0.074,1.27,0.197,1.791,0.498c9.494,5.494,20.219,5.934,30.667,7.452c16.037,2.329,32.111,4.412,48.121,6.907
	c4.377,0.682,8.512,3.141,12.882,3.596c7.793,0.812,15.682,0.703,23.529,1.017c1.731,0.069,3.524,0.059,5.158,0.534
	c0.95,0.276,2.007,1.331,2.297,2.259c0.15,0.479-1.15,1.876-2.003,2.117C255.788,671.38,253.188,671.71,249.931,672.316z"/>
<path fill="#EAAAA4" d="M272.324,640.446c-1.567-6.987,1.818-9.257,4.171-15.499c1.053-5.357,2.243-11.244,2.243-11.407
	c0-2.304,0-5.607,0-7.911c0.346-0.068,0.692-0.136,1.038-0.204c3.049,5.21,6.405,10.364,6.6,16.71
	c0.098,3.178-0.607,6.387-1.013,9.573c-0.749,5.867-1.456,11.742-2.384,17.581c-0.245,1.542-1.233,2.965-1.88,4.443
	c-1.447-0.725-3.778-1.892-5.225-2.617c-0.295-0.148-2.329-4.439-3.044-7.018"/>
<path fill="#FE3D47" d="M161.512,640.407c4.219,0.638,8.438,1.275,12.651,1.912C169.942,641.682,165.727,641.044,161.512,640.407z"
	/>
<path fill="#FE3D47" d="M147.789,637.975c1.548,0.354,3.095,0.707,4.637,1.06C150.876,638.681,149.332,638.328,147.789,637.975z"/>
<path fill="#FE3D47" d="M156.057,639.576c1.09,0.165,2.181,0.329,3.266,0.493C158.232,639.904,157.145,639.74,156.057,639.576z"/>
<path fill="#FE3D47" d="M176.266,642.618c1.059,0.124,2.117,0.248,3.17,0.371C178.375,642.865,177.32,642.741,176.266,642.618z"/>
<path fill="#FE3D47" d="M261.148,623.775c0.345-0.707,0.69-1.414,1.035-2.113C261.838,622.372,261.493,623.074,261.148,623.775z"/>
<path fill="#EAAAA4" d="M273.719,646.61c0.282,0.598,0.564,1.196,0.846,1.793C274.283,647.805,274.001,647.208,273.719,646.61z"/>
<path fill="#090B08" d="M391.466,385.454c-22.789-0.522-44.412-16.697-50.438-36.203c-2.047-6.628-3.412-13.494-4.631-20.333
	c-0.302-1.693,0.726-4.815,1.948-5.316c1.985-0.814,5.638-0.975,6.84,0.273c6.982,7.247,14.608,4.586,22.597,2.714
	c14.433-3.381,29.043-6.009,43.468-9.423c7.957-1.883,15.731-4.594,23.481-7.246c1.474-0.504,2.529-2.413,3.618-3.8
	c0.837-1.066,1.169-2.671,2.181-3.423c1.396-1.038,3.328-2.213,4.829-1.988c1.268,0.191,3.011,2.168,3.239,3.566
	c2.361,14.512,5.4,29.162-0.018,43.572c-5.207,13.849-14.395,24.746-27.004,32.476c-3.292,2.018-7.301,3.302-11.14,3.894
	c-5.764,0.889-11.667,0.87-17.511,1.237 M440.611,322.182c-3.659,0.727-6.756,1.069-9.68,1.968
	c-18.828,5.793-38.247,8.876-57.526,12.557c-6.097,1.164-12.367,1.448-18.567,2.04c-5.026,0.48-6.214,1.873-4.102,6.429
	c3.476,7.497,7.809,14.428,14.772,19.397c9.21,6.573,19.668,8.083,30.559,7.979c6.979-0.067,14.059,0.082,20.456-3.353
	c12.223-6.564,19.791-16.957,23.047-30.197C440.863,333.74,440.307,328.023,440.611,322.182z"/>
<path fill="#090B08" d="M341.967,260.823c-0.328,1.83-0.438,3.733-1.03,5.473c-1.168,3.437-3.105,6.454-7.032,7.006
	c-4.02,0.565-6.507-2.132-8.519-5.076c-3.095-4.527-1.15-14.449,3.74-16.698c2.385-1.097,5.854-0.836,8.511-0.074
	C340.546,252.289,341.779,256.113,341.967,260.823z"/>
<path fill="#090B08" d="M421.624,242.927c0.079-6.944,4.118-12.086,9.489-11.267c2.522,0.385,5.335,2.091,7.026,4.052
	c4.003,4.641,1.414,15.938-6.908,17.937c-5.049,1.213-8.238-2.974-9.577-8.119C421.442,244.715,421.624,243.797,421.624,242.927z"/>
<path fill="#FEFEFE" d="M440.611,322.182c-0.303,5.841,0.253,11.558-1.041,16.82c-3.255,13.241-10.824,23.634-23.047,30.197
	c-6.397,3.435-13.477,3.286-20.456,3.353c-10.891,0.104-21.349-1.406-30.559-7.979c-6.963-4.969-11.296-11.901-14.772-19.397
	c-2.112-4.556-0.924-5.949,4.102-6.429c6.2-0.592,12.47-0.876,18.567-2.04c19.28-3.682,38.699-6.764,57.526-12.557
	C433.855,323.251,436.951,322.909,440.611,322.182z"/>
</svg>
