<?xml version="1.0" encoding="utf-8"?>
<!-- Generator: Adobe Illustrator 26.0.2, SVG Export Plug-In . SVG Version: 6.00 Build 0)  -->
<svg version="1.1" id="图层_1" xmlns="http://www.w3.org/2000/svg" xmlns:xlink="http://www.w3.org/1999/xlink" x="0px" y="0px"
	 viewBox="0 0 1600 1600" enable-background="new 0 0 1600 1600" xml:space="preserve">
<path fill="#F049D3" d="M979.609,1598.537c-192.006,0-384.011,0-576.017,0c-0.251-36.306-1.034-72.617-0.62-108.915
	c0.541-47.391,0.803-94.84,3.421-142.14c3.292-59.492,6.674-119.126,13.96-178.213c9.48-76.882,22.903-153.276,34.296-229.93
	c0.502-3.379-2.301-7.25-3.564-10.891c-3.097,2.804-8.364,5.213-8.959,8.474c-6.955,38.109-13.22,76.344-19.635,114.551
	c-1.724,10.267-2.668,19.289-13.217,26.908c-46.665,33.703-92.16,69.023-138.143,103.672c-5.79,4.363-5.839,8.276-1.568,14.138
	c42.63,58.507,80.6,119.841,111.122,185.598c1.155,2.488,1.506,6.71,0.162,8.781c-10.77,16.589-22.227,32.73-33.107,49.249
	c-12.986,19.716-25.572,39.695-38.413,59.507c-3.524,5.437-7.326,6.539-12.057,0.838c-11.68-14.076-23.528-28.016-35.489-41.855
	c-24.117-27.903-49.93-54.509-72.145-83.844c-28.399-37.502-55.133-76.408-80.421-116.088
	c-35.71-56.033-35.931-112.753,6.883-165.245c23.899-29.301,50.89-56.302,78.229-82.525c39.992-38.359,84.008-72.211,132.076-99.66
	c45.093-25.75,91.804-48.851,138.783-71.042c24.951-11.786,51.963-19.222,78.128-28.381c1.36-0.476,4.887,1.039,5.084,2.07
	c3.228,16.888,15.257,26.184,29.526,32.153c62.487,26.141,125.171,25.404,187.129-1.642c14.766-6.446,28.469-16.36,29.273-34.835
	c0.438-10.072,7.517-10.547,12.613-8.97c23.147,7.162,47.188,13.08,68.564,24.023c71.281,36.488,142.878,72.547,209.527,117.442
	c19.224,12.949,40.15,16.829,59.244-0.743c15.19-13.98,29.644-28.814,43.755-43.896c16.812-17.968,32.98-36.542,49.282-54.982
	c6.807-7.7,13.24-15.731,19.444-23.136c8.188,9.895,15.39,19.588,23.603,28.332c22.049,23.473,50.112,36.963,80.098,47.148
	c1.053,0.358,2.224,4.235,1.533,5.306c-43.978,68.094-88.017,136.148-132.348,204.013c-20.146,30.841-42.41,41-79.432,30.592
	c-28.743-8.081-57.152-17.596-85.181-27.911c-36.742-13.522-73.025-28.305-109.344-42.946c-5.524-2.227-13.281-5.662-14.658-10.171
	c-4.229-13.854-5.914-28.491-8.491-42.842c-3.773-21.014-7.246-42.087-11.522-62.996c-0.422-2.064-5.552-4.287-8.478-4.261
	c-1.555,0.014-4.7,4.956-4.338,7.231c2.416,15.187,5.756,30.224,8.471,45.369c4.652,25.939,9.914,51.806,13.424,77.905
	c10.94,81.34,21.603,162.724,31.445,244.203c3.165,26.196,3.042,52.773,5.162,79.116c2.403,29.866,6.032,59.633,8.384,89.502
	c1.908,24.232,2.888,48.542,3.941,72.833C979.589,1572.449,979.437,1585.5,979.609,1598.537z"/>
<path fill="#050608" d="M979.609,1598.537c-0.172-13.037-0.02-26.089-0.584-39.109c-1.053-24.29-2.033-48.601-3.941-72.833
	c-2.352-29.869-5.981-59.636-8.384-89.502c-2.12-26.343-1.997-52.92-5.162-79.116c-9.843-81.479-20.505-162.862-31.445-244.203
	c-3.51-26.099-8.772-51.966-13.424-77.905c-2.716-15.144-6.055-30.181-8.471-45.369c-0.362-2.274,2.783-7.217,4.338-7.231
	c2.926-0.026,8.056,2.198,8.478,4.261c4.276,20.909,7.75,41.982,11.522,62.996c2.577,14.35,4.261,28.988,8.491,42.842
	c1.376,4.509,9.134,7.944,14.658,10.171c36.319,14.641,72.602,29.424,109.344,42.946c28.029,10.315,56.438,19.831,85.181,27.911
	c37.022,10.408,59.285,0.249,79.432-30.592c44.331-67.864,88.37-135.919,132.348-204.013c0.691-1.07-0.48-4.948-1.533-5.306
	c-29.986-10.185-58.049-23.675-80.098-47.148c-8.213-8.743-15.414-18.437-23.603-28.332c-6.204,7.405-12.637,15.436-19.444,23.136
	c-16.302,18.44-32.47,37.014-49.282,54.982c-14.111,15.082-28.565,29.916-43.755,43.896c-19.094,17.572-40.02,13.693-59.244,0.743
	c-66.648-44.895-138.245-80.954-209.527-117.442c-21.376-10.942-45.417-16.861-68.564-24.023c-5.096-1.577-12.175-1.102-12.613,8.97
	c-0.804,18.475-14.507,28.389-29.273,34.835c-61.958,27.045-124.642,27.783-187.129,1.642
	c-14.268-5.969-26.298-15.266-29.526-32.153c-0.197-1.031-3.724-2.546-5.084-2.07c-26.165,9.16-53.178,16.596-78.128,28.381
	c-46.979,22.191-93.69,45.291-138.783,71.042c-48.068,27.449-92.083,61.3-132.076,99.66c-27.339,26.222-54.329,53.224-78.229,82.525
	c-42.815,52.492-42.593,109.212-6.883,165.245c25.288,39.68,52.022,78.586,80.421,116.088
	c22.215,29.335,48.029,55.941,72.145,83.844c11.961,13.839,23.809,27.779,35.489,41.855c4.731,5.702,8.534,4.599,12.057-0.838
	c12.841-19.812,25.427-39.791,38.413-59.507c10.88-16.519,22.337-32.66,33.107-49.249c1.344-2.07,0.993-6.293-0.162-8.781
	c-30.522-65.756-68.492-127.091-111.122-185.598c-4.271-5.862-4.222-9.775,1.568-14.138c45.983-34.649,91.478-69.97,138.143-103.672
	c10.549-7.619,11.493-16.641,13.217-26.908c6.414-38.207,12.68-76.442,19.635-114.551c0.595-3.261,5.862-5.669,8.959-8.474
	c1.263,3.642,4.066,7.512,3.564,10.891c-11.393,76.654-24.816,153.048-34.296,229.93c-6.144,64.27-9.144,119.27-13.96,178.213
	c-2.617,47.3-2.88,94.749-3.421,142.14c-0.414,36.298,0.369,72.61,0.62,108.915c-4.333,0-8.667,0-13,0
	c0.137-1.45,0.406-2.901,0.393-4.35c-0.342-38.773-0.8-77.545-1.047-116.319c-0.164-25.66-0.031-51.322-0.031-75.463
	c-1.293,1.434-4.837,4.485-7.298,8.244c-14.361,21.936-28.468,44.037-42.661,66.083c-11.921,18.518-11.925,18.521,1.198,36.022
	c3.49,4.654,6.628,9.65,10.613,13.837c5.234,5.5,3.337,9.339-0.373,15.042c-12.12,18.628-23.272,37.887-34.796,56.903
	c-4.667,0-9.334,0-14,0c11.496-19.974,23.155-39.859,34.288-60.033c1.437-2.605,1.37-7.412-0.113-9.981
	c-3.464-6.001-8.712-10.956-12.32-16.893c-5.198-8.554-8.237-2.888-10.667,1.485c-6.812,12.259-8.119,12.93-17.603,2.557
	c-28.033-30.663-55.813-61.56-83.471-92.562c-44.147-49.486-82.871-103.094-116.01-160.385
	c-42.044-72.684-32.3-135.015,24.323-197.388c65.987-72.687,139.594-135.981,226.004-182.352
	c53.706-28.821,110.881-51.18,166.506-76.423c1.297-0.589,2.679-0.987,2.739-1.009c-21.7-8.352-44.816-15.584-66.481-25.873
	c-97.966-46.522-168.774-120.055-204.829-222.273c-47.21-133.841-29.553-261.938,51.443-378.413
	C350.108,101.757,423.07,47.457,514.125,19.26C570.012,1.953,627.178-1.675,684.837,3.854
	c95.307,9.14,179.652,45.461,253.859,105.891c77.648,63.231,125.203,144.206,144.062,242.278
	c15.215,79.121,10.42,156.357-25.168,229.666c-46.638,96.073-118.581,165.981-218.339,206.092
	c-3.181,1.279-6.459,2.317-11.144,3.984c12.159,4.319,23.641,7.134,33.954,12.288c36.603,18.292,73.216,36.638,109.052,56.367
	c40.073,22.062,79.414,45.466,118.865,68.642c25.277,14.85,35.237,14.336,58.55-9.539c25.907-26.531,50.511-54.346,75.363-81.889
	c10.23-11.338,19.888-23.223,29.316-35.242c6.883-8.775,14.273-3.273,21.696-1.935c1.995,0.359,5.633,0.48,5.95-0.315
	c1.187-2.97,2.96-7.773,1.582-9.392c-21.516-25.267-23.22-53.44-13.898-83.808c7.187-23.414,5.705-47.4,2.825-71.268
	c-1.387-11.496-0.274-22.097,11.488-26.916c14.387-5.894,31.413-0.366,36.294,13.041c5.245,14.409,7.167,30.032,10.468,45.141
	c0.475,2.173,0.551,4.433,0.888,7.312c8.338-13.792,15.695-27.318,24.33-39.973c20.62-30.219,43.534-58.518,73.618-80.036
	c9.486-6.785,24.036-6.602,30.809-0.642c9.654,8.495,12.698,22.325,6.038,33.989c-10.692,18.726-22.269,36.948-32.295,53.446
	c11.147,10.777,23.968,19.706,32.16,31.776c20.576,30.315,30.779,63.448,15.45,99.657c-7.516,17.753-23.719,26.757-39.321,36.068
	c-12.251,7.311-24.056,15.586-36.916,21.603c-13.452,6.294-15.138,20.207-22.874,30.085c-6.727,8.589-8.872,16.15,0.378,24.521
	c1.638,1.482,1.74,6.982,0.318,9.187c-46.159,71.603-92.465,143.113-139.068,214.428c-12.76,19.527-28.063,37.137-52.364,41.718
	c-22.249,4.194-43.857-1.135-64.772-8.984c-59.882-22.472-119.748-44.988-179.624-67.476c-0.737-0.277-1.531-0.402-2.915-0.756
	c2.755,18.492,5.782,36.482,8.066,54.566c7.482,59.231,15.258,118.434,21.783,177.773c3.559,32.365,4.683,64.993,7.158,97.483
	c2.207,28.964,5.147,57.877,7.065,86.858c2.402,36.307,4.09,72.661,6.086,108.995
	C988.942,1598.537,984.276,1598.537,979.609,1598.537z M781.791,806.311c-15.528,2.509-30.461,5.328-45.519,7.036
	c-3.286,0.372-7.022-3.229-10.551-5c3.192-2.58,6.125-6.977,9.613-7.473c78.159-11.106,148.955-39.3,208.616-91.754
	c97.426-85.657,146.258-191.64,130.72-323.068c-11.371-96.181-49.532-179.738-121.386-245.979
	C841.81,37.305,710.327-2.44,560.908,21.372C477.089,34.73,407.315,76.424,348.25,137.04
	c-95.595,98.104-129.274,216.319-108.857,349.302c16.656,108.489,76.575,191.822,166.158,253.754
	c59.366,41.043,126.976,58.736,197.945,65.684c2.545,0.249,5.668,2.545,6.956,4.786c0.81,1.411-0.797,6.078-2.203,6.528
	c-3.614,1.157-7.785,1.345-11.617,0.907c-11.32-1.292-22.584-3.075-33.87-4.666c-0.669,1.015-1.338,2.03-2.008,3.044
	c7.624,5.883,14.428,13.706,23.006,17.336c57.76,24.445,115.903,23.782,173.592-0.457
	C769.017,828.358,779.198,820.713,781.791,806.311z M1352.363,665.035c-5.902,9.244-11.734,18.534-17.749,27.703
	c-1.753,2.673-4.029,5.003-6.065,7.491c-2.57-2.32-5.968-4.201-7.491-7.075c-1.711-3.23-1.764-7.35-2.481-11.093
	c-3.415-17.83-6.358-35.767-10.382-53.458c-2.422-10.644-11.948-8.212-18.921-6.83c-2.288,0.453-4.971,7.613-4.593,11.42
	c2.709,27.313,3.478,54.429-4.092,81.181c-7.55,26.685-5.993,51.244,15.759,71.617c1.702,1.594,1.961,6.441,0.916,8.956
	c-4.309,10.37-9.489,20.375-14.053,30.646c-0.678,1.526-0.506,4.395,0.512,5.564c18.318,21.047,40.846,35.997,67.117,45.235
	c1.538,0.541,4.798-0.655,5.725-2.056c5.759-8.708,11.03-17.737,16.564-26.597c4.673-7.482,7.928-16.98,14.552-21.878
	c14.059-10.394,29.85-18.463,45.027-27.322c37.123-21.669,48.431-42.154,39.397-77.866c-3.777-14.93-10.492-29.924-19.169-42.638
	c-18.022-26.407-44.323-30.349-76.638-14.1c-17.18,8.639-24.596,26.366-14.682,42.708c9.955,16.411,22.619,31.386,35.504,45.724
	c6.449,7.176,15.487,12.694,24.341,16.871c11.302,5.332,18.017-4.594,25.891-10.341c1.608-1.174,6.001-0.632,7.546,0.804
	c1.511,1.403,2.221,5.598,1.222,7.466c-6.958,13.016-27.453,19.721-40.884,13.641c-22.123-10.015-37.229-28.078-51.975-46.322
	C1346.427,713.661,1335.133,691.652,1352.363,665.035z M402.209,1239.538c5-57,16.899-153.164,14-151
	c-39.6,29.568-90.09,68.029-129.607,97.386c-4.649,3.454-4.172,5.394-1.281,10.06c31.729,51.196,70.888,113.554,93.888,155.554
	c4.981,8.219,8.936,15.89,13.091,24.609 M1350.604,665.58c2.457-0.347,3.064-0.244,3.315-0.496
	c16.519-16.579,36.659-23.716,59.829-23.268c1.849,0.036,4.614-0.879,5.459-2.264c11.23-18.403,22.795-36.653,32.808-55.713
	c2.576-4.904,0.055-12.485-0.124-18.837c-6.414,0.576-15.307-1.352-18.831,2.14c-20.262,20.073-39.797,40.96-58.438,62.555
	C1365.594,640.155,1359.053,652.76,1350.604,665.58z"/>
<path fill="#FAFCFE" d="M316.589,1598.537c11.524-19.016,22.676-38.274,34.796-56.903c3.711-5.703,5.608-9.543,0.373-15.042
	c-3.985-4.187-7.123-9.182-10.613-13.837c-13.123-17.502-13.119-17.505-1.198-36.022c14.193-22.046,28.3-44.148,42.661-66.083
	c2.461-3.759,6.006-6.81,7.298-8.244c0,24.141-0.133,49.803,0.031,75.463c0.247,38.774,0.705,77.546,1.047,116.319
	c0.013,1.449-0.256,2.9-0.393,4.35C365.924,1598.537,341.257,1598.537,316.589,1598.537z"/>
<path fill="#FAFCFE" d="M781.791,806.311c-2.592,14.402-12.774,22.047-24.438,26.948c-57.688,24.239-115.831,24.903-173.592,0.457
	c-8.578-3.63-15.382-11.453-23.006-17.336c0.669-1.015,1.338-2.029,2.008-3.044c11.286,1.591,22.55,3.373,33.87,4.666
	c3.833,0.438,8.003,0.25,11.617-0.907c1.405-0.45,3.013-5.118,2.203-6.528c-1.288-2.242-4.411-4.537-6.956-4.786
	c-70.969-6.948-138.579-24.641-197.945-65.684c-89.582-61.933-149.502-145.266-166.158-253.754
	C218.977,353.358,252.655,235.144,348.25,137.04C407.315,76.424,477.089,34.73,560.908,21.372
	C710.327-2.44,841.81,37.305,953.284,140.072c71.853,66.241,110.015,149.798,121.386,245.979
	c15.538,131.427-33.294,237.41-130.72,323.068c-59.661,52.454-130.457,80.648-208.616,91.754c-3.488,0.496-6.421,4.893-9.613,7.473
	c3.529,1.771,7.265,5.373,10.551,5C751.33,811.639,766.262,808.82,781.791,806.311z M770.577,450.21
	c-0.747-6.301-1.248-16.341-3.477-25.982c-0.716-3.097-5.989-5.14-9.178-7.666c-1.845,3.283-3.665,6.581-5.545,9.845
	c-1.189,2.064-2.35,5.769-3.726,5.866C687.786,436.568,626.9,440.582,566,444.358c-1.698,0.105-3.707-2.607-5.346-4.232
	c-2.683-2.658-5.181-5.503-7.757-8.269c-2.435,2.834-6.86,5.611-6.943,8.513c-0.279,9.748,0.1,19.701,1.82,29.289
	c7.064,39.359,20.214,75.129,56.537,98.042c43.605,27.506,102.845,19.268,136.934-19.795
	C764.882,520.819,769.189,487.883,770.577,450.21z M765.865,329.69c-0.981-8.032-4.637-13.866-14.467-14.201
	c-10.169-0.347-15.116,5.408-15.1,14.465c0.016,8.907,5.546,14.398,14.918,14.534C760.503,344.622,765.053,339.474,765.865,329.69z
	 M550.896,352.739c8.842-0.773,14.08-5.817,13.921-14.366c-0.16-8.604-4.523-14.821-14.425-14.833
	c-9.739-0.012-15.108,5.086-15.039,14.536C535.423,347.71,541.78,351.901,550.896,352.739z"/>
<path fill="#FAFCFE" d="M1352.363,665.035c-17.23,26.616-5.936,48.625,10.898,69.451c14.747,18.244,29.852,36.306,51.975,46.322
	c13.431,6.08,33.926-0.625,40.884-13.641c0.999-1.868,0.289-6.062-1.222-7.466c-1.546-1.435-5.938-1.977-7.546-0.804
	c-7.874,5.747-14.589,15.673-25.891,10.341c-8.854-4.177-17.892-9.695-24.341-16.871c-12.886-14.338-25.549-29.314-35.504-45.724
	c-9.913-16.342-2.497-34.069,14.682-42.708c32.315-16.249,58.617-12.307,76.638,14.1c8.677,12.714,15.392,27.708,19.169,42.638
	c9.034,35.712-2.274,56.197-39.397,77.866c-15.177,8.859-30.968,16.928-45.027,27.322c-6.624,4.897-9.879,14.396-14.552,21.878
	c-5.534,8.86-10.805,17.889-16.564,26.597c-0.927,1.401-4.187,2.597-5.725,2.056c-26.271-9.238-48.8-24.189-67.117-45.235
	c-1.018-1.169-1.19-4.039-0.512-5.564c4.564-10.271,9.744-20.276,14.053-30.646c1.045-2.515,0.786-7.362-0.916-8.956
	c-21.752-20.373-23.309-44.932-15.759-71.617c7.569-26.752,6.801-53.868,4.092-81.181c-0.378-3.807,2.306-10.966,4.593-11.42
	c6.973-1.382,16.499-3.814,18.921,6.83c4.025,17.691,6.968,35.628,10.382,53.458c0.717,3.744,0.769,7.864,2.481,11.093
	c1.523,2.874,4.921,4.756,7.491,7.075c2.036-2.487,4.312-4.818,6.065-7.491C1340.63,683.569,1346.461,674.279,1352.363,665.035z"/>
<path fill="#FAFCFE" d="M1350.604,665.58c8.449-12.82,14.99-25.425,24.017-35.883c18.641-21.595,38.176-42.482,58.438-62.555
	c3.524-3.492,12.418-1.564,18.831-2.14c0.179,6.352,2.7,13.933,0.124,18.837c-10.013,19.06-21.578,37.309-32.808,55.713
	c-0.845,1.385-3.609,2.3-5.459,2.264c-23.17-0.447-43.31,6.69-59.829,23.268C1353.668,665.336,1353.061,665.233,1350.604,665.58z"/>
<path fill="#050608" d="M770.577,450.21c-1.388,37.673-5.695,70.609-29.332,97.696c-34.089,39.063-93.328,47.301-136.934,19.795
	c-36.324-22.913-49.473-58.684-56.537-98.042c-1.721-9.588-2.1-19.54-1.82-29.289c0.083-2.901,4.508-5.679,6.943-8.513
	c2.576,2.766,5.074,5.611,7.757,8.269c1.64,1.625,3.648,4.337,5.346,4.232c60.9-3.776,121.786-7.79,182.651-12.085
	c1.376-0.097,2.537-3.802,3.726-5.866c1.88-3.263,3.7-6.561,5.545-9.845c3.188,2.525,8.462,4.569,9.178,7.666
	C769.329,433.869,769.83,443.909,770.577,450.21z M561.651,461.856c6.199,42.081,19.358,82.047,64.425,100.553
	c37.508,15.401,71.813,6.102,100.454-21.182c26.839-25.569,28.182-59.795,28.584-91.937
	C690.254,453.502,626.29,457.657,561.651,461.856z"/>
<path fill="#050608" d="M765.865,329.69c-0.812,9.785-5.362,14.932-14.648,14.798c-9.372-0.136-14.902-5.627-14.918-14.534
	c-0.016-9.057,4.931-14.812,15.1-14.465C761.228,315.824,764.884,321.658,765.865,329.69z"/>
<path fill="#050608" d="M550.896,352.739c-9.117-0.838-15.473-5.029-15.543-14.663c-0.069-9.449,5.3-14.548,15.039-14.536
	c9.902,0.012,14.265,6.229,14.425,14.833C564.976,346.922,559.738,351.966,550.896,352.739z"/>
<path fill="#FAFCFE" d="M561.651,461.856c64.639-4.199,128.603-8.354,193.463-12.567c-0.402,32.142-1.744,66.369-28.584,91.937
	c-28.641,27.285-62.946,36.584-100.454,21.182C581.009,543.903,567.851,503.937,561.651,461.856z"/>
</svg>
