<?xml version="1.0" encoding="utf-8"?>
<!-- Generator: Adobe Illustrator 26.0.2, SVG Export Plug-In . SVG Version: 6.00 Build 0)  -->
<svg version="1.1" id="图层_1" xmlns="http://www.w3.org/2000/svg" xmlns:xlink="http://www.w3.org/1999/xlink" x="0px" y="0px"
	 viewBox="0 0 720 720" enable-background="new 0 0 720 720" xml:space="preserve">
<path fill="#0D0F0E" d="M0,627.846c4.112,0.164,8.227,0.278,12.335,0.508c3.902,0.218,5.743-0.945,5.908-4.835
	c0.229-5.394,3.82-8.889,7.483-11.233c14.189-9.076,29.284-16.788,43.142-26.316c16.792-11.546,35.356-19.569,53.424-28.463
	c11.838-5.827,24.71-10.268,38.358-10.54c3.508-0.07,4.522-1.648,4.399-4.861c-0.275-7.165,1.772-13.605,5.472-19.827
	c3.035-5.103,4.876-10.902,7.502-16.267c3.667-7.493,7.809-14.759,11.326-22.318c8.096-17.402,16.029-34.883,23.824-52.423
	c2.127-4.787,4.783-8.879,8.927-12.2c10.789-8.647,21.379-17.542,32.073-26.308c1.632-1.338,3.402-2.505,5.094-3.771
	c1.93-1.445,2.168-3.236,0.985-5.262c-1.885-3.225-3.61-6.563-5.717-9.637c-11.867-17.317-18.776-36.37-21.306-57.233
	c-2.126-17.532-1.84-34.978,1.495-52.197c4.177-21.562,12.062-41.718,24.352-60.213c13.79-20.753,31.678-36.988,51.896-51.159
	c11.126-7.798,22.727-14.428,35.546-18.851c3.518-1.214,7.29-1.673,10.858-2.763c24.034-7.345,48.823-6.099,73.448-6.322
	c7.316-0.066,14.696,0.957,21.951,2.089c4.745,0.741,9.248,2.951,13.984,3.845c10.37,1.957,19.981,5.935,29.383,10.46
	c9.965,4.796,20.189,9.25,29.555,15.054c17.586,10.899,32.562,24.688,42.793,43.078c5.45,9.798,11.318,19.365,16.663,29.218
	c8.005,14.754,11.629,30.863,14.204,47.307c2.674,17.079,2.272,34.183-0.196,51.128c-3.181,21.84-11.552,41.718-25.663,58.916
	c-1.963,2.392-4.431,4.383-6.758,6.456c-1.979,1.763-2.04,3.04-0.139,5.215c6.252,7.155,12.58,14.311,18.054,22.05
	c2.614,3.695,4.442,8.625,4.772,13.132c1.094,14.917,1.358,29.896,1.893,44.853c0.039,1.095,0.017,2.386-0.504,3.278
	c-4.372,7.473-4.614,15.843-4.554,23.999c0.2,26.96,0.927,53.916,1.415,80.874c0.183,10.108,0.262,20.218,0.401,30.327
	c0.015,1.122,0.027,2.256,0.192,3.361c1.14,7.621,3.166,10.163,10.77,10.673c10.693,0.718,21.441,0.787,32.166,0.827
	c27.843,0.105,55.686,0.043,83.529,0.047c1.362,0,2.724,0,4.363,0c0,5.567,0,10.903,0,16.24
	c-41.693,0.194-83.386,0.363-125.079,0.607c-7.096,0.042-7.096,0.19-7.727,7.281c-0.022,0.249-0.047,0.498-0.053,0.747
	c-0.227,9.856-0.412,19.713-0.69,29.567c-0.195,6.909-2.332,9.155-9.25,9.566c-3.103,0.185-6.258,0.194-9.344-0.137
	c-10.164-1.09-20.299-2.45-30.461-3.564c-24.794-2.718-49.633-1.499-74.446-0.487c-16.062,0.655-32.099,1.935-48.141,3.03
	c-10.682,0.729-21.369,1.464-32.024,2.498c-9.669,0.938-19.332,2.063-28.936,3.513c-8.988,1.357-17.907,3.193-26.835,4.927
	c-5.361,1.041-11.304,1.176-15.861,3.727c-5.645,3.16-10.196,1.908-15.581,0.365c-12.452-3.567-24.926-7.295-37.633-9.659
	c-12.588-2.342-25.472-3.094-38.227-4.539c-17.556-1.989-35.068-4.855-52.68-5.756c-27.405-1.401-54.877-1.805-82.324-1.968
	c-16.7-0.099-33.41,0.995-50.111,1.685c-3.166,0.131-4.368-0.49-4.119-4.086c0.781-11.294,1.135-22.617,1.638-33.929
	c0.256-5.753-1.674-8.064-7.403-8.463c-7.93-0.553-15.873-0.925-23.811-1.375C0,636.837,0,632.341,0,627.846z M411.142,138.255
	c-18.383,1.109-33.163-0.295-47.815,5.358c-10.035,3.871-20.457,6.686-29.852,12.169c-16.87,9.845-32.527,21.267-46.294,35.204
	c-9.092,9.205-16.569,19.627-22.852,30.849c-3.255,5.814-6.008,12.027-8.089,18.355c-3.604,10.958-6.958,22.04-9.577,33.267
	c-2.497,10.7-2.659,21.711-2.593,32.731c0.073,12.349,4.26,23.674,8.316,34.888c2.874,7.946,8.022,15.062,12.076,22.591
	c5.684,10.559,13.841,18.972,23.603,25.6c16.08,10.917,32.612,21.167,48.795,31.935c4.625,3.077,8.94,6.727,12.955,10.575
	c2.806,2.689,2.164,4.154-1.503,5.678c-7.148,2.972-7.995,6.441-2.436,11.836c5.622,5.456,11.752,10.389,17.344,15.873
	c2.574,2.525,5.253,4.145,8.793,4.262c6.735,0.222,13.485,0.682,20.204,0.42c3.101-0.121,6.245-1.469,9.184-2.704
	c2.727-1.146,5.313-2.724,7.772-4.391c5.734-3.889,12.509-7.006,16.72-12.179c5.046-6.198,10.98-7.929,18.055-8.72
	c7.417-0.829,14.848-1.663,22.197-2.931c6.852-1.182,13.57-3.127,20.412-4.387c7.034-1.295,7.429-1.686,9.286-8.601
	c0.662-2.465,2.097-5.081,3.946-6.807c7.649-7.145,15.691-13.866,23.395-20.954c7.236-6.657,15.402-9.926,25.296-8.181
	c2.898,0.511,5.306-0.09,7.102-2.839c5.161-7.901,10.434-15.732,15.772-23.515c8.872-12.937,12.588-27.917,14.367-42.894
	c2.602-21.905,2.705-44.073-4.286-65.504c-2.736-8.388-5.328-16.965-9.317-24.776c-10.215-20.003-24.231-36.892-42.326-50.584
	c-13.491-10.208-27.337-19.739-42.703-26.69c-14.459-6.54-29.983-10.286-45.53-12.99
	C430.455,138.265,418.943,138.687,411.142,138.255z M519.585,576.897c0.639-1.974,1.557-3.799,1.788-5.708
	c0.839-6.934,1.594-13.885,2.1-20.85c0.431-5.927-1.302-11.393-4.777-16.197c-3.928-5.43-8.143-10.653-12.033-16.108
	c-5.204-7.299-9.61-15.26-15.448-21.992c-9.217-10.628-19.367-20.443-29.07-30.651c-9.15-9.627-22.836-9.982-32.38-0.826
	c-10.202,9.788-21.694,16.385-36.123,18.884c-19.021,3.295-34.439-1.13-46.964-15.873c-5.854-6.891-11.548-13.739-16.129-21.692
	c-3.162-5.49-8.477-9.93-13.401-14.176c-10.91-9.408-22.144-18.443-33.322-27.535c-3.526-2.868-7.667-3.368-11.549-0.998
	c-5.721,3.494-11.301,7.248-16.722,11.194c-4.828,3.514-9.474,7.304-13.983,11.223c-4.027,3.5-8.524,6.827-11.438,11.156
	c-4.416,6.562-7.894,13.805-11.31,20.977c-5.414,11.369-10.366,22.957-15.664,34.382c-6.178,13.321-12.651,26.506-18.713,39.878
	c-2.053,4.528-3.245,9.447-5.21,15.326c6.315,0,11.555,0.053,16.793-0.013c6.487-0.082,12.972-0.348,19.458-0.361
	c3.097-0.006,4.088-1.347,4.087-4.335c-0.001-6.226-0.222-12.521,0.582-18.665c1.793-13.701,3.863-27.384,6.475-40.949
	c0.785-4.079,3.634-7.794,5.713-11.579c1.665-3.031,4.5-3.569,7.433-2.322c3.226,1.371,4.487,4.144,3.891,7.597
	c-1.864,10.803-4.141,21.549-5.592,32.406c-1.597,11.949-2.419,24.001-3.665,35.999c-0.306,2.952,0.866,4.26,3.734,4.818
	c8.178,1.593,16.288,3.536,24.476,5.067c6.151,1.15,11.935,2.777,17.296,6.332c5.497,3.645,11.692,6.076,18.375,2.831
	c10.853-5.27,22.377-7.983,34.101-10.691c26.201-6.05,52.642-6.758,79.257-5.879c9.216,0.304,18.41,1.241,27.624,1.669
	c4.496,0.208,5.584-1.259,5.009-5.657c-1.051-8.031-1.96-16.083-3.19-24.086c-0.556-3.617,0.581-5.586,4.193-5.939
	c6.573-0.643,12.433-0.606,13.061,8.925c0.548,8.324,1.161,16.653,1.349,24.988c0.128,5.652-0.121,6.015,5.229,7.183
	c13.014,2.841,24.671,8.902,36.48,14.713C507.16,572.191,513.267,574.306,519.585,576.897z M550.762,628.724
	c-5.005-5.44-9.168-10.515-13.912-14.969c-5.081-4.77-11.078-8.584-16.025-13.473c-10.912-10.785-24.342-17.594-38.131-23.144
	c-22.824-9.186-46.834-13.736-71.572-13.327c-16.676,0.275-33.395-1.264-50.017,1.758c-8.922,1.622-18.08,1.944-27.011,3.531
	c-7.934,1.41-15.691,3.8-23.546,5.671c-3.46,0.824-4.968,2.793-4.833,6.404c0.721,19.326,1.311,38.658,2.013,57.985
	c0.167,4.606,0.441,9.22,0.943,13.799c0.318,2.904,2.031,4.579,5.205,3.692c7.922-2.214,15.793-4.618,23.747-6.708
	c15.171-3.987,30.236-8.585,45.613-11.528c27.843-5.329,56.058-8.22,84.406-8.855c24.322-0.545,48.663-0.179,72.996-0.272
	C543.922,629.275,547.205,628.93,550.762,628.724z M292.866,656.202c0-2.131,0.036-3.24-0.005-4.347
	c-0.539-14.325-1.028-28.653-1.663-42.974c-0.32-7.228-0.774-14.457-1.481-21.655c-0.156-1.592-1.255-3.667-2.566-4.483
	c-16.144-10.059-33.691-16.479-52.731-17.197c-23.924-0.902-47.894-1.275-71.829-0.9c-9.715,0.153-19.554,2.24-29.023,4.669
	c-5.879,1.508-11.22,5.212-16.713,8.102c-10.025,5.275-20,10.645-29.964,16.035c-11.766,6.365-23.503,12.783-35.242,19.199
	c-5.105,2.79-9.783,6.098-13.821,11.377c1.655,0,2.493,0.039,3.325-0.006c8.947-0.489,17.895-1.443,26.839-1.395
	c18.076,0.097,36.226-0.175,54.206,1.348c32.91,2.788,65.876,5.167,98.459,11.297c19.799,3.725,39.333,7.863,57.93,15.796
	C283.016,652.957,287.657,654.346,292.866,656.202z M568.521,661.622c0.23,0,0.459,0,0.689,0c0-2.994-0.038-5.988,0.009-8.981
	c0.074-4.676-0.616-5.869-5.08-6.589c-6.266-1.011-12.573-2.168-18.892-2.376c-16.706-0.549-33.427-0.779-50.143-0.824
	c-9.963-0.027-19.94,0.329-29.89,0.891c-9.064,0.512-18.155,1.138-27.132,2.427c-13.768,1.976-27.455,4.526-41.164,6.904
	c-11.536,2.001-23.075,3.996-34.574,6.195c-9.291,1.776-18.535,3.803-27.778,5.814c-4.735,1.031-9.552,1.921-14.076,3.576
	c-2.043,0.747-4.329,2.926-4.976,4.946c-1.275,3.98-1.859,8.284-2.044,12.485c-0.289,6.573,2.81,8.303,9.112,5.968
	c3.947-1.462,8.042-2.738,12.182-3.427c15.86-2.639,31.741-5.182,47.663-7.417c11.227-1.576,22.502-3.129,33.807-3.75
	c20.798-1.142,41.63-2.015,62.456-2.209c21.447-0.2,42.906,0.444,64.354,0.934c6.849,0.157,13.694,0.886,20.518,1.579
	c3.615,0.367,5.014-1.121,4.971-4.547C568.483,669.354,568.521,665.488,568.521,661.622z M109.315,638.999
	c-22.642,0-39.736,0.032-56.83-0.029c-3.222-0.012-4.36,1.011-3.985,4.469c0.368,3.398-0.151,6.91-0.442,10.358
	c-0.294,3.474-0.92,6.921-1.155,10.397c-0.228,3.357,1.305,4.752,4.927,4.834c28.299,0.639,56.622,0.95,84.882,2.427
	c21.764,1.138,43.486,3.483,65.155,5.926c16.094,1.814,32.169,4.143,48.074,7.178c13.391,2.555,27.269,3.161,39.99,8.9
	c1.012,0.457,3.172,0.093,3.824-0.695c2.085-2.518,0.757-13.281-1.819-15.219c-7.184-5.403-14.503-10.586-23.334-13.13
	c-5.624-1.62-11.082-3.897-16.77-5.204c-17.332-3.981-34.689-7.889-52.134-11.331c-13.204-2.606-26.486-5.28-39.862-6.443
	C141.213,639.817,122.47,639.581,109.315,638.999z M576.955,628.503c0-1.469,0.06-2.696-0.009-3.916
	c-0.795-14.066-1.862-28.122-2.355-42.198c-0.594-16.964-1.081-33.949-0.902-50.918c0.132-12.56,1.017-25.149,2.304-37.648
	c0.828-8.043-0.13-9.387-7.912-7.028c-0.954,0.289-1.899,0.612-2.85,0.912c-6.51,2.058-13.11,2.855-19.918,1.733
	c-3.513-0.579-4.96,0.82-5.061,4.583c-0.268,9.98-0.069,19.995-0.837,29.936c-1.606,20.763-3.761,41.483-5.542,62.234
	c-0.166,1.934,0.043,4.66,1.24,5.824c6.33,6.155,13.185,11.768,19.553,17.885c4.652,4.468,8.772,9.484,13.25,14.141
	C570.188,626.406,572.316,629.291,576.955,628.503z M556.114,475.487c4.758-0.922,10.649-1.875,16.441-3.246
	c4.876-1.154,6.045-3.092,5.729-8.078c-0.332-5.225-0.888-10.445-0.989-15.674c-0.262-13.652-4.466-25.954-13.858-35.787
	c-12.004-12.569-21.397-14.433-33.451-3.331c-2.292,2.111-4.563,4.245-6.909,6.294c-3.187,2.784-6.322,5.647-9.685,8.204
	c-6.079,4.622-7.964,15.03-3.908,21.684c1.799,2.952,3.178,6.157,4.81,9.214c1.579,2.959,3.1,5.962,4.897,8.786
	c2.004,3.148,4.465,4.497,8.488,2.686c4.781-2.152,9.726-0.61,11.546,3.431c1.226,2.723,3.197,3.74,5.665,4.216
	C548.182,474.523,551.533,474.852,556.114,475.487z M525.813,523.522c1.748-14.756,0.955-28.718,0.44-43.364
	c-7.166,3.239-11.995,1.057-15.557-4.65c-0.527-0.844-0.997-1.722-1.507-2.576c-4.147-6.946-8.213-13.702-15.46-18.332
	c-5.366-3.428-10.479-4.246-16.271-2.836c-1.806,0.44-3.468,1.475-5.195,2.238c1.447,1.224,2.721,2.803,4.372,3.612
	c7.602,3.723,13.382,9.494,18.177,16.231c3.894,5.472,7.121,11.414,10.905,16.97c3.158,4.638,7.051,8.799,9.97,13.568
	C519.201,510.126,522.032,516.29,525.813,523.522z"/>
<path fill="#E3D7D5" d="M0,641.332c7.937,0.449,15.88,0.821,23.811,1.375c5.729,0.4,7.659,2.711,7.403,8.463
	c-0.503,11.312-0.857,22.636-1.638,33.929c-0.249,3.596,0.953,4.216,4.119,4.086c16.7-0.69,33.41-1.784,50.111-1.685
	c27.447,0.163,54.919,0.567,82.324,1.968c17.612,0.9,35.124,3.767,52.68,5.756c12.755,1.445,25.639,2.197,38.227,4.539
	c12.707,2.364,25.182,6.092,37.633,9.659c5.385,1.543,9.936,2.795,15.581-0.365c4.557-2.551,10.5-2.687,15.861-3.727
	c8.928-1.734,17.847-3.57,26.835-4.927c9.604-1.45,19.267-2.575,28.936-3.513c10.655-1.034,21.342-1.768,32.024-2.498
	c16.042-1.095,32.079-2.375,48.141-3.03c24.813-1.012,49.653-2.231,74.446,0.487c10.162,1.114,20.297,2.474,30.461,3.564
	c3.086,0.331,6.24,0.321,9.344,0.137c6.918-0.411,9.055-2.657,9.25-9.566c0.278-9.854,0.463-19.711,0.69-29.567
	c0.006-0.249,0.031-0.498,0.053-0.747c0.631-7.09,0.631-7.239,7.727-7.281c41.693-0.244,83.386-0.413,125.079-0.607
	c0.055,11.098,0.137,22.196,0.159,33.294c0.026,12.975-0.001,25.949-0.005,38.924C479.501,720,239.75,720,0,720
	C0,693.777,0,667.555,0,641.332z"/>
<path fill="#FEFEFE" d="M411.142,138.255c7.801,0.432,19.313,0.01,30.416,1.941c15.547,2.703,31.071,6.45,45.53,12.99
	c15.366,6.951,29.212,16.482,42.703,26.69c18.094,13.692,32.111,30.581,42.326,50.584c3.989,7.811,6.581,16.388,9.317,24.776
	c6.991,21.431,6.888,43.599,4.286,65.504c-1.779,14.978-5.495,29.958-14.367,42.894c-5.338,7.784-10.611,15.614-15.772,23.515
	c-1.796,2.749-4.204,3.35-7.102,2.839c-9.894-1.745-18.06,1.524-25.296,8.181c-7.704,7.088-15.747,13.809-23.395,20.954
	c-1.848,1.727-3.284,4.342-3.946,6.807c-1.857,6.915-2.252,7.306-9.286,8.601c-6.841,1.26-13.56,3.205-20.412,4.387
	c-7.35,1.268-14.78,2.102-22.197,2.931c-7.075,0.791-13.009,2.522-18.055,8.72c-4.212,5.173-10.987,8.29-16.72,12.179
	c-2.458,1.668-5.045,3.245-7.772,4.391c-2.938,1.235-6.083,2.583-9.184,2.704c-6.719,0.262-13.469-0.198-20.204-0.42
	c-3.54-0.117-6.219-1.737-8.793-4.262c-5.592-5.484-11.723-10.417-17.344-15.873c-5.559-5.395-4.712-8.864,2.436-11.836
	c3.666-1.524,4.308-2.989,1.503-5.678c-4.015-3.848-8.331-7.498-12.955-10.575c-16.184-10.768-32.715-21.018-48.795-31.935
	c-9.762-6.628-17.919-15.041-23.603-25.6c-4.054-7.529-9.202-14.645-12.076-22.591c-4.056-11.213-8.243-22.538-8.316-34.888
	c-0.065-11.021,0.097-22.031,2.593-32.731c2.619-11.226,5.973-22.309,9.577-33.267c2.081-6.328,4.834-12.541,8.089-18.355
	c6.283-11.221,13.76-21.644,22.852-30.849c13.767-13.937,29.424-25.359,46.294-35.204c9.395-5.483,19.817-8.297,29.852-12.169
	C377.979,137.96,392.759,139.364,411.142,138.255z M417.31,389.229c0.464-0.061,1.909,0.002,3.163-0.456
	c7.94-2.896,16.145-5.284,23.689-9.002c20.435-10.069,30.882-27.165,33.023-49.588c0.126-1.323,0.105-2.793-0.34-4.015
	c-1.643-4.507-7.759-5.268-12.245-1.22c-2.921,2.637-6.047,3.435-9.639,2.648c-11.44-2.505-22.847-5.163-34.28-7.701
	c-7.9-1.754-15.945-2.983-23.696-5.235c-6.835-1.985-14.53-2.892-18.048-10.937c-1.75-4.001-6.055-4.198-9.222-1.048
	c-4.122,4.099-4.69,9.493-4.28,14.654c0.908,11.422,1.577,22.996,4.044,34.132C374.575,374.456,393.14,388.847,417.31,389.229z
	 M380.636,243.304c-0.204,7.257,2.922,10.861,8.827,11.483c5.543,0.584,8.957-2.127,9.829-8.181
	c0.348-2.418,0.411-4.987-0.001-7.383c-1.012-5.887-6.599-8.705-12.184-6.519C381.582,234.867,381.043,239.67,380.636,243.304z
	 M476.124,261.054c0.107,7.126,3.471,11.072,9.363,10.98c5.49-0.085,9.903-5.258,9.808-11.495
	c-0.097-6.307-3.928-10.556-9.85-10.006C478.309,251.197,475.91,254.446,476.124,261.054z"/>
<path fill="#41A3FD" d="M519.585,576.897c-6.318-2.591-12.425-4.705-18.18-7.537c-11.809-5.811-23.466-11.872-36.48-14.713
	c-5.351-1.168-5.101-1.531-5.229-7.183c-0.189-8.336-0.801-16.664-1.349-24.988c-0.628-9.531-6.488-9.568-13.061-8.925
	c-3.611,0.354-4.749,2.323-4.193,5.939c1.23,8.003,2.139,16.055,3.19,24.086c0.576,4.398-0.513,5.865-5.009,5.657
	c-9.214-0.427-18.408-1.365-27.624-1.669c-26.616-0.878-53.056-0.171-79.257,5.879c-11.724,2.707-23.249,5.421-34.101,10.691
	c-6.683,3.245-12.878,0.814-18.375-2.831c-5.361-3.555-11.144-5.181-17.296-6.332c-8.188-1.531-16.298-3.474-24.476-5.067
	c-2.867-0.558-4.04-1.866-3.734-4.818c1.245-11.998,2.068-24.05,3.665-35.999c1.451-10.857,3.728-21.603,5.592-32.406
	c0.596-3.453-0.665-6.226-3.891-7.597c-2.933-1.246-5.768-0.709-7.433,2.322c-2.079,3.785-4.928,7.5-5.713,11.579
	c-2.611,13.565-4.681,27.248-6.475,40.949c-0.804,6.144-0.583,12.439-0.582,18.665c0.001,2.988-0.99,4.329-4.087,4.335
	c-6.486,0.013-12.972,0.28-19.458,0.361c-5.238,0.066-10.478,0.013-16.793,0.013c1.966-5.879,3.157-10.798,5.21-15.326
	c6.062-13.372,12.536-26.557,18.713-39.878c5.299-11.425,10.25-23.014,15.664-34.382c3.416-7.173,6.894-14.416,11.31-20.977
	c2.913-4.329,7.411-7.656,11.438-11.156c4.509-3.919,9.155-7.709,13.983-11.223c5.42-3.946,11.001-7.7,16.722-11.194
	c3.882-2.371,8.023-1.871,11.549,0.998c11.179,9.092,22.413,18.127,33.322,27.535c4.924,4.247,10.24,8.686,13.401,14.176
	c4.58,7.953,10.275,14.802,16.129,21.692c12.525,14.743,27.943,19.167,46.964,15.873c14.429-2.499,25.921-9.097,36.123-18.884
	c9.545-9.157,23.23-8.801,32.38,0.826c9.703,10.208,19.854,20.024,29.07,30.651c5.838,6.732,10.244,14.693,15.448,21.992
	c3.89,5.456,8.105,10.679,12.033,16.108c3.475,4.804,5.207,10.27,4.777,16.197c-0.506,6.965-1.261,13.916-2.1,20.85
	C521.141,573.097,520.223,574.922,519.585,576.897z"/>
<path fill="#FEFEFE" d="M550.762,628.724c-3.558,0.207-6.841,0.551-10.125,0.564c-24.333,0.093-48.674-0.273-72.996,0.272
	c-28.348,0.635-56.563,3.527-84.406,8.855c-15.377,2.943-30.443,7.541-45.613,11.528c-7.954,2.09-15.825,4.494-23.747,6.708
	c-3.175,0.887-4.887-0.788-5.205-3.692c-0.502-4.58-0.775-9.193-0.943-13.799c-0.701-19.327-1.292-38.658-2.013-57.985
	c-0.135-3.61,1.373-5.58,4.833-6.404c7.855-1.871,15.612-4.261,23.546-5.671c8.931-1.587,18.088-1.909,27.011-3.531
	c16.622-3.022,33.341-1.483,50.017-1.758c24.738-0.409,48.748,4.142,71.572,13.327c13.789,5.549,27.219,12.359,38.131,23.144
	c4.947,4.89,10.944,8.703,16.025,13.473C541.595,618.209,545.757,623.284,550.762,628.724z"/>
<path fill="#FEFEFE" d="M292.866,656.202c-5.209-1.856-9.85-3.245-14.278-5.134c-18.597-7.933-38.131-12.071-57.93-15.796
	c-32.583-6.13-65.549-8.509-98.459-11.297c-17.98-1.523-36.13-1.252-54.206-1.348c-8.943-0.048-17.892,0.906-26.839,1.395
	c-0.833,0.046-1.67,0.006-3.325,0.006c4.038-5.279,8.716-8.586,13.821-11.377c11.738-6.416,23.476-12.834,35.242-19.199
	c9.964-5.39,19.939-10.76,29.964-16.035c5.492-2.89,10.834-6.594,16.713-8.102c9.469-2.429,19.308-4.516,29.023-4.669
	c23.935-0.376,47.905-0.002,71.829,0.9c19.041,0.717,36.587,7.137,52.731,17.197c1.31,0.817,2.409,2.891,2.566,4.483
	c0.707,7.198,1.161,14.427,1.481,21.655c0.634,14.321,1.124,28.649,1.663,42.974C292.902,652.961,292.866,654.071,292.866,656.202z"
	/>
<path fill="#FEFEFE" d="M568.521,661.622c0,3.866-0.037,7.731,0.011,11.596c0.043,3.426-1.356,4.914-4.971,4.547
	c-6.824-0.693-13.669-1.423-20.518-1.579c-21.449-0.49-42.907-1.134-64.354-0.934c-20.825,0.194-41.658,1.067-62.456,2.209
	c-11.305,0.621-22.581,2.174-33.807,3.75c-15.922,2.235-31.803,4.778-47.663,7.417c-4.14,0.689-8.235,1.965-12.182,3.427
	c-6.302,2.335-9.401,0.605-9.112-5.968c0.185-4.2,0.769-8.505,2.044-12.485c0.647-2.019,2.933-4.198,4.976-4.946
	c4.524-1.655,9.341-2.546,14.076-3.576c9.244-2.012,18.488-4.038,27.778-5.814c11.499-2.199,23.038-4.194,34.574-6.195
	c13.709-2.378,27.396-4.928,41.164-6.904c8.977-1.289,18.069-1.914,27.132-2.427c9.949-0.562,19.926-0.918,29.89-0.891
	c16.716,0.045,33.437,0.275,50.143,0.824c6.319,0.208,12.626,1.366,18.892,2.376c4.465,0.72,5.154,1.914,5.08,6.589
	c-0.047,2.993-0.009,5.987-0.009,8.981C568.98,661.622,568.751,661.622,568.521,661.622z"/>
<path fill="#FEFEFE" d="M109.315,638.999c13.155,0.583,31.897,0.818,50.519,2.437c13.376,1.163,26.658,3.837,39.862,6.443
	c17.445,3.443,34.802,7.35,52.134,11.331c5.688,1.306,11.146,3.584,16.77,5.204c8.831,2.544,16.15,7.727,23.334,13.13
	c2.577,1.938,3.904,12.701,1.819,15.219c-0.653,0.788-2.812,1.152-3.824,0.695c-12.721-5.738-26.6-6.344-39.99-8.9
	c-15.905-3.035-31.98-5.364-48.074-7.178c-21.669-2.443-43.39-4.788-65.155-5.926c-28.26-1.477-56.582-1.788-84.882-2.427
	c-3.622-0.082-5.154-1.477-4.927-4.834c0.236-3.476,0.862-6.923,1.155-10.397c0.292-3.448,0.81-6.96,0.442-10.358
	c-0.374-3.458,0.763-4.48,3.985-4.469C69.579,639.031,86.673,638.999,109.315,638.999z"/>
<path fill="#41A3FD" d="M576.955,628.503c-4.639,0.789-6.767-2.096-9.04-4.46c-4.477-4.656-8.598-9.673-13.25-14.141
	c-6.369-6.117-13.224-11.73-19.553-17.885c-1.197-1.164-1.406-3.89-1.24-5.824c1.781-20.751,3.936-41.471,5.542-62.234
	c0.769-9.941,0.569-19.956,0.837-29.936c0.101-3.762,1.549-5.162,5.061-4.583c6.808,1.122,13.408,0.325,19.918-1.733
	c0.951-0.301,1.896-0.623,2.85-0.912c7.782-2.36,8.74-1.015,7.912,7.028c-1.287,12.5-2.172,25.088-2.304,37.648
	c-0.179,16.969,0.308,33.954,0.902,50.918c0.493,14.076,1.56,28.132,2.355,42.198C577.015,625.806,576.955,627.033,576.955,628.503z
	"/>
<path fill="#FEFEFE" d="M556.114,475.487c-4.581-0.634-7.932-0.964-11.224-1.599c-2.468-0.476-4.438-1.492-5.665-4.216
	c-1.82-4.042-6.764-5.584-11.546-3.431c-4.024,1.811-6.484,0.463-8.488-2.686c-1.798-2.824-3.319-5.827-4.897-8.786
	c-1.632-3.057-3.01-6.263-4.81-9.214c-4.056-6.654-2.171-17.062,3.908-21.684c3.364-2.557,6.498-5.421,9.685-8.204
	c2.346-2.049,4.617-4.184,6.909-6.294c12.055-11.102,21.447-9.238,33.451,3.331c9.392,9.833,13.596,22.136,13.858,35.787
	c0.1,5.229,0.657,10.449,0.989,15.674c0.317,4.987-0.853,6.924-5.729,8.078C566.763,473.612,560.872,474.564,556.114,475.487z"/>
<path fill="#FEFEFE" d="M525.813,523.522c-3.781-7.233-6.612-13.396-10.127-19.14c-2.919-4.769-6.812-8.931-9.97-13.568
	c-3.784-5.556-7.011-11.498-10.905-16.97c-4.795-6.737-10.574-12.508-18.177-16.231c-1.651-0.809-2.925-2.388-4.372-3.612
	c1.728-0.763,3.389-1.798,5.195-2.238c5.792-1.41,10.905-0.592,16.271,2.836c7.248,4.63,11.313,11.386,15.46,18.332
	c0.51,0.854,0.98,1.732,1.507,2.576c3.562,5.707,8.391,7.889,15.557,4.65C526.768,494.805,527.561,508.766,525.813,523.522z"/>
<path fill="#0D0F0E" d="M417.31,389.229c-24.17-0.382-42.736-14.772-47.83-37.767c-2.467-11.135-3.137-22.71-4.044-34.132
	c-0.41-5.161,0.158-10.555,4.28-14.654c3.167-3.15,7.473-2.953,9.222,1.048c3.518,8.045,11.213,8.951,18.048,10.937
	c7.751,2.252,15.796,3.481,23.696,5.235c11.433,2.538,22.84,5.196,34.28,7.701c3.592,0.787,6.718-0.012,9.639-2.648
	c4.485-4.048,10.601-3.287,12.245,1.22c0.446,1.222,0.467,2.692,0.34,4.015c-2.141,22.424-12.588,39.52-33.023,49.588
	c-7.545,3.717-15.75,6.105-23.689,9.002C419.219,389.231,417.775,389.168,417.31,389.229z M416.356,374.467
	c0.478-0.064,1.895-0.049,3.178-0.454c11.473-3.62,22.725-7.866,31.612-16.306c3.254-3.09,5.637-7.193,8.008-11.083
	c1.542-2.53,0.672-4.516-2.647-4.953c-2.714-0.358-5.419-0.852-8.093-1.447c-16.214-3.607-32.432-7.202-48.619-10.93
	c-5.561-1.281-10.998-3.101-16.564-4.356c-3.597-0.811-4.574,0.345-4.012,3.995c0.91,5.913,1.726,11.846,2.832,17.724
	C385.274,363.784,398.037,374.346,416.356,374.467z"/>
<path fill="#0D0F0E" d="M380.636,243.304c0.407-3.634,0.946-8.437,6.471-10.6c5.585-2.186,11.172,0.632,12.184,6.519
	c0.412,2.396,0.349,4.965,0.001,7.383c-0.872,6.054-4.286,8.765-9.829,8.181C383.558,254.165,380.432,250.562,380.636,243.304z"/>
<path fill="#0D0F0E" d="M476.124,261.054c-0.214-6.608,2.185-9.857,9.321-10.521c5.922-0.55,9.753,3.699,9.85,10.006
	c0.096,6.237-4.318,11.41-9.808,11.495C479.596,272.126,476.231,268.18,476.124,261.054z"/>
<path fill="#FEFEFE" d="M416.356,374.467c-18.319-0.122-31.082-10.683-34.305-27.812c-1.106-5.877-1.922-11.81-2.832-17.724
	c-0.562-3.65,0.415-4.806,4.012-3.995c5.566,1.255,11.003,3.076,16.564,4.356c16.187,3.728,32.404,7.323,48.619,10.93
	c2.673,0.595,5.378,1.089,8.093,1.447c3.319,0.438,4.189,2.424,2.647,4.953c-2.371,3.89-4.754,7.993-8.008,11.083
	c-8.887,8.44-20.139,12.686-31.612,16.306C418.25,374.418,416.834,374.404,416.356,374.467z"/>
</svg>
